<?xml version="1.0" encoding="utf-8"?>
<!-- Generator: Adobe Illustrator 22.0.1, SVG Export Plug-In . SVG Version: 6.00 Build 0)  -->
<svg version="1.1" id="Layer_1" xmlns="http://www.w3.org/2000/svg" xmlns:xlink="http://www.w3.org/1999/xlink" x="0px" y="0px"
	 viewBox="0 0 86 71" style="enable-background:new 0 0 86 71;" xml:space="preserve">
<style type="text/css">
	.st0{fill:#FFFFFF;}
	.st1{fill:#39B54A;}
	.st2{fill:#007A40;}
	.st3{fill:#009B4E;}
	.st4{fill:#37B34A;}
	.st5{fill:#0082BF;}
	.st6{fill:#0097CC;}
	.st7{fill:#62B3E3;}
	.st8{fill-rule:evenodd;clip-rule:evenodd;fill:#8B7836;}
	.st9{fill:#8B7736;}
	.st10{fill:#030001;}
	.st11{fill:#D1A860;}
	.st12{fill:#BCA485;}
	.st13{fill:#79655D;}
	.st14{fill:#FBEC00;}
	.st15{fill:#00AA5B;}
	.st16{fill:#F9EC00;}
	.st17{fill:#024F98;}
	.st18{fill:#0093C2;}
	.st19{fill:#EC1C24;}
	.st20{fill:#DF1E26;}
</style>
<path class="st0" d="M62.5,0h-39C10.5,0,0,10.5,0,23.5S10.5,47,23.5,47h13.3L43,71l6.2-24h13.3C75.5,47,86,36.5,86,23.5
	S75.5,0,62.5,0z"/>
<g>
	<path class="st0" d="M38.7,44.5H23.5c-11.6,0-21-9.4-21-21s9.4-21,21-21h39c11.6,0,21,9.4,21,21s-9.4,21-21,21H47.3L43,61
		L38.7,44.5z"/>
	<path class="st1" d="M62.5,3C73.8,3,83,12.2,83,23.5S73.8,44,62.5,44H47.7h-0.8l-0.2,0.7L43,59.1l-3.7-14.3L39.1,44h-0.8H23.5
		C12.2,44,3,34.8,3,23.5S12.2,3,23.5,3H62.5 M62.5,2h-39C11.6,2,2,11.6,2,23.5S11.6,45,23.5,45h14.8L43,63l4.7-18h14.8
		C74.4,45,84,35.4,84,23.5S74.4,2,62.5,2L62.5,2z"/>
</g>
<g>
	<polygon class="st2" points="35.9,15.2 33.1,16.9 33.2,21 36,19.2 	"/>
	<polygon class="st2" points="38.8,22.2 39.8,21.6 36.5,19.8 35.5,20.4 	"/>
	<polygon class="st3" points="38.8,22.2 35.5,20.4 34.6,21 38.6,23.2 39.6,22.7 	"/>
	<polygon class="st3" points="35.1,19.9 34.9,15.1 34,15.7 34.2,20.4 	"/>
	<polygon class="st4" points="34.6,21 30.8,23.3 35.4,25.8 39.1,23.5 38.6,23.2 	"/>
	<polygon class="st4" points="34.2,20.4 34,15.7 34,15.1 30.3,17.4 30.4,22.7 	"/>
	<polygon class="st2" points="35,31.9 36,32.5 36.1,28.7 35.1,28.1 	"/>
	<polygon class="st2" points="36.4,28.1 39.8,26.3 38.8,25.6 35.4,27.5 	"/>
	<polygon class="st3" points="34.2,27.6 34,32.2 34.9,32.8 35,31.9 35.1,28.1 	"/>
	<polygon class="st3" points="34.5,27 35.4,27.5 38.8,25.6 39.6,25.2 38.7,24.7 	"/>
	<polygon class="st4" points="34.2,27.6 30.4,25.2 30.2,30.4 34,32.8 34,32.2 	"/>
	<polygon class="st4" points="34.5,27 38.7,24.7 39.2,24.3 35.4,22.1 30.7,24.6 	"/>
	<polygon class="st2" points="16.2,19.8 13,21.6 13.9,22.2 17.2,20.4 	"/>
	<polygon class="st2" points="17.8,16 16.8,15.4 16.6,19.3 17.6,19.9 	"/>
	<polygon class="st3" points="18.2,21 17.2,20.4 13.9,22.2 13.2,22.7 14.1,23.2 	"/>
	<polygon class="st3" points="18.5,20.4 18.7,15.7 17.8,15.1 17.8,16 17.6,19.9 	"/>
	<polygon class="st4" points="14.1,23.2 13.6,23.5 17.4,25.8 22,23.3 18.2,21 	"/>
	<polygon class="st4" points="22.5,17.4 18.8,15.1 18.7,15.7 18.5,20.4 22.3,22.7 	"/>
	<polygon class="st2" points="16.6,28.7 16.8,32.5 17.8,31.9 17.6,28.1 	"/>
	<polygon class="st2" points="13.9,25.6 13,26.3 16.3,28.1 17.3,27.5 	"/>
	<polygon class="st3" points="18.6,27.6 17.6,28.1 17.8,31.9 17.8,32.8 18.7,32.2 	"/>
	<polygon class="st3" points="18.2,27 14.1,24.7 13.2,25.2 13.9,25.6 17.3,27.5 	"/>
	<polygon class="st4" points="22.5,30.4 22.4,25.2 18.6,27.6 18.7,32.2 18.8,32.8 	"/>
	<polygon class="st4" points="18.2,27 22,24.6 17.3,22.1 13.5,24.3 14.1,24.7 	"/>
	<polygon class="st5" points="26.7,34.9 30.4,37 30.4,35.7 26.7,33.5 	"/>
	<polygon class="st5" points="22,35.6 22,37 25.9,34.8 25.9,33.5 	"/>
	<polygon class="st6" points="26.7,33.5 30.4,35.7 31.3,36.2 31.3,34.9 26.7,32.2 	"/>
	<polygon class="st6" points="25.9,32.2 21.1,34.9 21.1,36.1 22,35.6 25.9,33.5 	"/>
	<polygon class="st7" points="26.7,27.1 26.7,32.2 31.3,34.9 31.9,35.2 31.9,30.1 	"/>
	<polygon class="st7" points="25.9,27.1 20.6,30.2 20.5,35.2 21.1,34.9 25.9,32.2 	"/>
	<polygon class="st5" points="26.1,13.2 26.1,13.1 22.4,11 22.4,12.3 26.1,14.5 	"/>
	<polygon class="st5" points="26.9,14.5 30.8,12.4 30.8,11 26.9,13.2 26.9,13.3 	"/>
	<polygon class="st6" points="26.1,15.1 26.1,14.5 22.4,12.3 21.5,11.8 21.5,13.1 26.1,15.8 	"/>
	<polygon class="st6" points="26.9,15.1 26.9,15.8 31.7,13.1 31.7,11.9 30.8,12.4 26.9,14.5 	"/>
	<polygon class="st7" points="21.5,13.1 20.9,12.8 20.9,17.9 26.1,20.9 26.1,15.8 	"/>
	<polygon class="st7" points="31.7,13.1 26.9,15.8 26.9,20.9 32.2,17.8 32.3,12.8 	"/>
</g>
<g>
	<path class="st8" d="M54.1,36.2c-0.2,0.1-0.6,0.1-0.6,0.1c0.2-0.1,0.4-0.3,0.6-0.5L54.1,36.2L54.1,36.2z M63.2,22.9V22l0.9,0.5
		l-0.3,0.9L63.2,22.9L63.2,22.9z M63.2,21.8c0.3,0.2,0.4,0.3,0.7,0.5c1.1,0.6,2.3,1.3,3.4,1.8c0.1-0.2-0.1-0.4-0.2-0.5
		c-0.7-0.4-1.4-0.7-2.1-1.1c-0.3-0.1-1.4-0.7-1.7-1c0,0,0,0,0,0c1.1,0.5,3,1.4,4.1,2.1c0-0.2,0-0.2-0.1-0.3
		c-0.7-0.5-1.8-1.1-2.5-1.4c-0.3-0.1-1.1-0.5-1.4-0.7c0,0,0,0,0,0c1,0.4,2.3,0.8,3.6,1.6c0.1,0.1,0.2,0.1,0.5,0.3l0.1-0.4
		c0,0-0.2-0.2-0.3-0.2c-1.2-1-2.5-1.7-3.7-1.7c0,0,0,0-0.1,0c-0.1,0-0.1,0,0,0c0.6,0,1.2,0,1.7,0.2c0.1,0,0.2,0,0.3,0.1
		c0.9,0.3,1.6,0.7,1.9,0.9c0.1,0.1,0.2,0.1,0.2,0.2l3.5-3.9L70.9,18c0,0,0.2-0.2,0.2-0.3l0,0l-0.1-0.1c-0.1,0-2.4,2.7-3.3,3.8
		c-0.2-0.1-0.3-0.1-0.5-0.2c-1.6-0.8-3.6-0.5-4-0.5V21.8L63.2,21.8z M63.2,20.7L63.2,20.7l1.8-1.9c0.5-0.5,1-1,1.5-1.5
		c0.2-0.2,0.4-0.4,0.5-0.4l0,0c0.2-0.1,0.6-0.2,0.9-0.2c0.4,0,0.7,0,1,0c0.8,0.1,1.5,0.3,2,0.6c-1.2,1.3-2.1,2.4-3.4,3.8
		C66.1,20.5,64.6,20.3,63.2,20.7L63.2,20.7z M63.1,20.5L63.1,20.5c0.1-0.5,0.1-1,0.1-1.5L63,19.1c0,0.7-0.1,1.3-0.1,1.4h-1
		c-0.2-0.3-0.3-0.4-0.5-0.7c0-0.1-0.1-0.1-0.1-0.2l3.4-1l-0.4-4.2c0.6-0.5,1.2-1.1,1.9-1.7l0,0c0.3,0.5,0.5,1.3,0.6,2
		c0,0.3,0,0.6,0,1c0,0.3,0,0.7-0.2,0.9c-0.1,0.1-0.3,0.3-0.4,0.5c-0.5,0.5-1,1-1.5,1.5L63.1,20.5L63.1,20.5z M61.7,20.5l-0.5-0.9
		L60.3,20l0.6,0.6H61.7L61.7,20.5z M60.1,19.8l-0.7-0.7c0.2-0.3,1.4-2,3.1-2.5c0.2-0.1,0.3-0.1,0.5-0.2c-0.1-1.5-0.3-4.9-0.3-5
		l0.1,0c0,0,0,0.3,0,0.3l0.2,0l0.3,5.2c-0.1,0-0.2,0-0.3,0.1c-0.4,0.1-1.2,0.3-2,0.7c-0.1,0-0.2,0.1-0.2,0.1
		c-0.5,0.3-0.9,0.6-1.3,1.1c-0.1,0.1-0.1,0.1,0,0c0,0,0,0,0,0c0.9-0.8,2.3-1.3,3.8-1.4c0.1,0,0.3,0,0.3,0l0.2,0.3
		c-0.4,0.1-0.4,0.1-0.6,0.1c-1.5,0.3-2.7,0.9-3.7,1.4c0,0,0,0,0,0c0.3-0.1,1.1-0.4,1.4-0.5c0.8-0.3,1.9-0.7,2.8-0.8
		c0.2,0,0.2,0,0.3,0.1c-1.2,0.3-3.2,1-4.3,1.4c0,0,0,0,0,0c0.4-0.1,1.6-0.4,1.9-0.5c0.7-0.2,1.5-0.5,2.3-0.7c0.1,0,0.4,0,0.5,0.2
		c-1.1,0.4-2.5,0.8-3.6,1.1C60.6,19.7,60.4,19.8,60.1,19.8L60.1,19.8z M59.3,19c0.8-1.3,1.9-2.2,3.5-2.7c-0.1-1.9-0.2-3.3-0.3-5.1
		c-0.6,0.1-1.2,0.5-1.9,1c-0.2,0.2-0.5,0.4-0.7,0.7c-0.2,0.2-0.5,0.5-0.6,0.8c0,0.2,0,0.4,0,0.7c0,0.7,0,1.4,0,2.1l0,0L59.3,19
		L59.3,19L59.3,19z M59.2,19L59.2,19c-0.8-1.3-2-2.2-3.5-2.7c0.1-1.9,0.2-3.3,0.3-5.1l0,0c0.6,0.1,1.2,0.5,1.9,1
		c0.2,0.2,0.5,0.4,0.7,0.7c0.2,0.2,0.5,0.5,0.6,0.8c0,0.2,0,0.4,0,0.7c0,0.7,0,1.4,0,2.1V19L59.2,19z M59,19.1
		c-0.2-0.3-1.4-2-3.1-2.5c-0.2-0.1-0.3-0.1-0.5-0.2c0.1-1.5,0.3-4.9,0.3-5l-0.1,0c0,0,0,0.3,0,0.3l-0.2,0l0,0L55,16.9
		c0.1,0,0.2,0,0.3,0.1c0.4,0.1,1.2,0.3,2,0.7c0.1,0,0.2,0.1,0.2,0.1c0.5,0.3,0.9,0.6,1.3,1.1c0.1,0.1,0.1,0.1,0,0c0,0,0,0,0,0
		c-0.9-0.8-2.3-1.3-3.8-1.4c-0.1,0-0.3,0-0.3,0l-0.2,0.3c0.4,0.1,0.4,0.1,0.6,0.1c1.5,0.3,2.7,0.9,3.7,1.4c0,0,0,0,0,0
		c-0.3-0.1-1.1-0.4-1.4-0.5c-0.8-0.3-1.9-0.7-2.8-0.8c-0.2,0-0.2,0-0.3,0.1c1.2,0.3,3.2,1,4.3,1.4c0,0,0,0,0,0
		c-0.4-0.1-1.6-0.4-1.9-0.5c-0.7-0.2-1.5-0.5-2.3-0.7c-0.1,0-0.4,0-0.5,0.2c1.1,0.4,2.5,0.8,3.6,1.1c0.3,0.1,0.5,0.2,0.8,0.2
		L59,19.1L59,19.1z M58.2,20l-0.6,0.6h-0.8l0.5-0.9L58.2,20L58.2,20z M56.5,20.5h-1c0-0.2-0.1-0.7-0.1-1.4l1.7,0.5
		c0,0.1-0.1,0.1-0.1,0.2C56.8,20.1,56.7,20.3,56.5,20.5L56.5,20.5z M55.4,20.5L55.4,20.5l-1.9-1.8c-0.5-0.5-1-1-1.5-1.5
		c-0.2-0.2-0.4-0.4-0.4-0.5c-0.1-0.2-0.2-0.6-0.2-0.9c0-0.4,0-0.7,0-1l0,0c0.1-0.8,0.3-1.5,0.6-2c0.7,0.6,1.3,1.1,1.9,1.7l-0.4,4.2
		l1.6,0.5C55.2,19.6,55.3,20.1,55.4,20.5L55.4,20.5z M55.3,20.6L55.3,20.6c-1.5-0.3-2.9-0.2-4.4,0.6c-1.3-1.4-2.2-2.5-3.4-3.8
		c0.5-0.3,1.3-0.5,2-0.6l0,0c0.3,0,0.6,0,1,0c0.3,0,0.7,0,0.9,0.2c0.1,0.1,0.3,0.3,0.5,0.4c0.5,0.5,1,1,1.5,1.5L55.3,20.6L55.3,20.6
		z M55.3,20.8v1c-0.3,0.2-0.4,0.3-0.7,0.5c-1.1,0.6-2.3,1.3-3.4,1.8c-0.1-0.2,0.1-0.4,0.2-0.5c0.7-0.4,1.4-0.7,2.1-1.1
		c0.3-0.1,1.4-0.7,1.7-1c0,0,0,0,0,0c-1.1,0.5-3,1.4-4.1,2.1c0-0.2,0-0.2,0.1-0.3c0.7-0.5,1.8-1.1,2.5-1.4c0.3-0.1,1.1-0.5,1.4-0.6
		c0,0,0,0,0,0c-1,0.4-2.3,0.8-3.6,1.6c-0.1,0.1-0.2,0.1-0.5,0.3L51,22.7c0,0,0.2-0.2,0.3-0.2c1.2-1,2.5-1.7,3.7-1.7c0,0,0,0,0.1,0
		c0.1,0,0.1,0,0,0c-0.6,0-1.2,0-1.7,0.2c-0.1,0-0.2,0-0.3,0.1c-0.9,0.3-1.6,0.7-1.9,0.9C51,22,51,22,50.9,22.1l-3.5-3.9l0,0l0.2-0.2
		c0,0-0.2-0.2-0.2-0.3l0.1-0.1c0.1,0,2.4,2.7,3.3,3.8c0.2-0.1,0.3-0.1,0.5-0.2C52.9,20.4,54.9,20.7,55.3,20.8L55.3,20.8z M55.3,22
		l-0.9,0.5l0.3,0.9l0.6-0.6V22L55.3,22z M54.5,23.6c0-0.3-0.1-0.5-0.2-0.8l0,0c0-0.1,0-0.1-0.1-0.2l-1.5,0.8
		c0.5,0.5,0.9,0.8,1.1,0.9L54.5,23.6L54.5,23.6z M53.7,24.4c-0.4-0.3-0.8-0.6-1.2-0.9l-1.4,0.8L48.4,21c-0.8,0-1.6,0.1-2.5,0.2
		c0.1,0.6,0.5,1.2,1,1.9c0.2,0.2,0.4,0.5,0.7,0.7l0,0c0.2,0.2,0.5,0.5,0.8,0.6c0.2,0,0.4,0,0.7,0c0.7,0,1.4,0,2.1,0L53.7,24.4
		L53.7,24.4L53.7,24.4z M53.7,24.6L53.7,24.6c-0.4,0.3-0.8,0.6-1.1,0.9l-1.4-0.8L48,28.5l-1.6-0.1l0,0l0-0.2c0,0-0.3,0-0.3,0l0-0.1
		c0.1,0,1.1,0,2.2,0.1l0.1-0.1c-0.8,0-1.6-0.1-2.5-0.2c0.1-0.6,0.5-1.2,1-1.9c0.2-0.2,0.4-0.5,0.7-0.7c0.2-0.2,0.5-0.5,0.8-0.6
		c0.2,0,0.4,0,0.7,0c0.7,0,1.4,0,2.1,0H53.7L53.7,24.6z M53.8,24.7c-0.1,0.1-0.6,0.4-1.1,0.9l1.5,0.8c0-0.1,0-0.1,0.1-0.2
		c0.1-0.3,0.2-0.5,0.2-0.8L53.8,24.7L53.8,24.7z M54.7,25.6l0.6,0.6V27l-0.9-0.5L54.7,25.6L54.7,25.6z M55.3,27.2
		c-0.3-0.2-0.4-0.3-0.7-0.5c-1.1-0.6-2.3-1.3-3.4-1.8c-0.1,0.2,0.1,0.4,0.2,0.5c0.7,0.4,1.4,0.7,2.1,1.1c0.3,0.1,1.4,0.7,1.7,1
		c0,0,0,0,0,0c-1.1-0.5-3-1.4-4.1-2.1c0,0.2,0,0.2,0.1,0.3c0.7,0.5,1.8,1.1,2.5,1.4c0.3,0.1,1.1,0.5,1.4,0.7c0,0,0,0,0,0
		c-1-0.4-2.3-0.8-3.6-1.6c-0.1-0.1-0.2-0.1-0.5-0.3L51,26.3c0,0,0.2,0.2,0.3,0.2c1.2,1,2.5,1.7,3.7,1.7c0,0,0,0,0.1,0
		c0.1,0,0.1,0,0,0c-0.6,0-1.2,0-1.7-0.2c-0.1,0-0.2,0-0.3-0.1c-0.9-0.3-1.6-0.7-1.9-0.9C51,27,51,27,50.9,26.9l-3.5,3.9l0.2,0.2
		c0,0-0.2,0.2-0.2,0.3l0,0l0.1,0.1c0.1,0,2.4-2.7,3.3-3.8c0.2,0.1,0.3,0.1,0.5,0.2c1.6,0.8,3.6,0.5,4,0.5V27.2L55.3,27.2z
		 M55.3,28.3c-1.5,0.4-2.9,0.2-4.4-0.5c-1.3,1.4-2.2,2.5-3.4,3.8c0.5,0.3,1.3,0.5,2,0.6c0.3,0,0.6,0,1,0c0.3,0,0.7,0,0.9-0.2l0,0
		c0.1-0.1,0.3-0.3,0.5-0.4c0.5-0.5,1-1,1.5-1.5L55.3,28.3L55.3,28.3L55.3,28.3z M55.4,28.5l-1.8,1.8c-0.5,0.5-1,1-1.5,1.5
		c-0.2,0.2-0.4,0.4-0.4,0.5c-0.1,0.2-0.2,0.6-0.2,0.9c0,0.4,0,0.7,0,1c0.1,0.8,0.3,1.5,0.6,2l0,0c0.7-0.6,1.3-1.1,1.9-1.7l-0.4-4.2
		l1.6-0.5C55.2,29.4,55.3,28.9,55.4,28.5L55.4,28.5L55.4,28.5z M55.5,28.5h1c0.2,0.3,0.3,0.4,0.5,0.7c0,0.1,0.1,0.1,0.1,0.2
		l-1.7,0.5C55.4,29.2,55.5,28.6,55.5,28.5L55.5,28.5z M56.8,28.5l0.5,0.9l0.9-0.3l-0.6-0.6H56.8L56.8,28.5z M58.3,29.2
		c-0.3,0-0.5,0.1-0.8,0.2c-1.1,0.3-2.6,0.7-3.6,1.1c0.1,0.2,0.3,0.3,0.5,0.2c0.8-0.2,1.5-0.5,2.3-0.7c0.3-0.1,1.5-0.4,1.9-0.5
		c0,0,0,0,0,0c-1.2,0.4-3.1,1.1-4.3,1.4c0.1,0.2,0.2,0.2,0.3,0.1c0.9-0.1,2-0.5,2.8-0.8c0.3-0.1,1.1-0.4,1.4-0.5c0,0,0,0,0,0
		c-1,0.5-2.2,1.1-3.7,1.4c-0.1,0-0.2,0-0.6,0.1l0.2,0.3c0.1,0,0.3,0,0.3,0c1.6-0.1,3-0.6,3.8-1.4c0,0,0,0,0,0c0,0,0,0,0,0
		c-0.4,0.4-0.9,0.8-1.3,1.1c-0.1,0-0.2,0.1-0.2,0.1c-0.8,0.4-1.6,0.6-2,0.7c-0.1,0-0.2,0-0.3,0.1l0.3,5.2l0.2,0c0,0,0,0.3,0,0.3
		l0.1,0c0-0.1-0.2-3.5-0.3-5c0.2-0.1,0.3-0.1,0.5-0.2c1.7-0.5,2.9-2.2,3.1-2.5L58.3,29.2L58.3,29.2z M59.1,30L59.1,30l0,2.6l0,0
		c0,0.7,0,1.4,0,2.1c0,0.2,0,0.5,0,0.7c-0.1,0.2-0.3,0.5-0.6,0.8c-0.3,0.3-0.5,0.5-0.7,0.7c-0.6,0.5-1.3,0.9-1.9,1
		c-0.1-1.8-0.2-3.2-0.3-5.1C57.2,32.2,58.3,31.3,59.1,30L59.1,30z M59.3,30L59.3,30c0.8,1.3,2,2.2,3.5,2.7c-0.1,1.9-0.2,3.3-0.3,5.1
		l0,0c-0.6-0.1-1.2-0.5-1.9-1c-0.2-0.2-0.5-0.4-0.7-0.7c-0.2-0.2-0.5-0.5-0.6-0.8c0-0.2,0-0.4,0-0.7c0-0.7,0-1.4,0-2.1L59.3,30
		L59.3,30z M59.4,29.9c0.2,0.3,1.4,2,3.1,2.5c0.2,0.1,0.3,0.1,0.5,0.2c-0.1,1.5-0.3,4.9-0.3,5l0.1,0c0,0,0-0.3,0-0.3l0.2,0l0,0
		l0.3-5.2c-0.1,0-0.2,0-0.3-0.1c-0.4-0.1-1.2-0.3-2-0.7c-0.1,0-0.2-0.1-0.2-0.1c-0.5-0.3-0.9-0.6-1.3-1.1c-0.1-0.1-0.1-0.1,0,0
		c0,0,0,0,0,0c0.9,0.8,2.3,1.3,3.8,1.4c0.1,0,0.3,0,0.3,0l0.2-0.3c-0.4-0.1-0.4-0.1-0.6-0.1c-1.5-0.3-2.7-0.9-3.7-1.4c0,0,0,0,0,0
		c0.3,0.1,1.1,0.4,1.4,0.5c0.8,0.3,1.9,0.7,2.8,0.8c0.2,0,0.2,0,0.3-0.1c-1.2-0.3-3.2-1-4.3-1.4c0,0,0,0,0,0
		c0.4,0.1,1.6,0.4,1.9,0.5c0.7,0.2,1.5,0.5,2.3,0.7c0.1,0,0.4,0,0.5-0.2c-1.1-0.4-2.5-0.8-3.6-1.1c-0.3-0.1-0.5-0.2-0.8-0.2
		L59.4,29.9L59.4,29.9z M60.3,29l0.6-0.6h0.8l-0.5,0.9L60.3,29L60.3,29z M61.9,28.5h1c0,0.2,0.1,0.7,0.1,1.4l-1.7-0.5
		c0-0.1,0.1-0.1,0.1-0.2C61.6,28.9,61.7,28.7,61.9,28.5L61.9,28.5z M64.4,34.7c0.9,0.8,1.6,1.4,1.6,1.5L66,36.4c0,0-0.3-0.2-0.3-0.2
		l-0.2,0.2l-1.2-1L64.4,34.7L64.4,34.7z M64.4,34.6l0.4-4.2l-1.6-0.5c0-0.5-0.1-1-0.2-1.5h0.1l1.8,1.8c0.5,0.5,1,1,1.5,1.5
		c0.2,0.2,0.4,0.4,0.4,0.5c0.1,0.2,0.2,0.6,0.2,0.9c0,0.4,0,0.7,0,1l0,0c-0.1,0.8-0.3,1.5-0.6,2C65.6,35.7,65,35.1,64.4,34.6
		L64.4,34.6z M63.2,28.4L63.2,28.4c1.5,0.3,2.9,0.2,4.4-0.6c1.3,1.4,2.2,2.5,3.4,3.8c-0.5,0.3-1.3,0.5-2,0.6l0,0c-0.3,0-0.6,0-1,0
		c-0.3,0-0.7,0-0.9-0.2c-0.1-0.1-0.3-0.3-0.5-0.4c-0.5-0.5-1-1-1.5-1.5L63.2,28.4L63.2,28.4z M63.2,28.2v-1c0.3-0.2,0.4-0.3,0.7-0.5
		c1.1-0.6,2.3-1.3,3.4-1.8c0.1,0.2-0.1,0.4-0.2,0.5c-0.7,0.4-1.4,0.7-2.1,1.1c-0.3,0.1-1.4,0.7-1.7,1c0,0,0,0,0,0
		c1.1-0.5,3-1.4,4.1-2.1c0,0.2,0,0.2-0.1,0.3c-0.7,0.5-1.8,1.1-2.5,1.4c-0.3,0.1-1.1,0.5-1.4,0.6c0,0,0,0,0,0c1-0.4,2.3-0.8,3.6-1.6
		c0.1-0.1,0.2-0.1,0.5-0.3l0.1,0.4c0,0-0.2,0.2-0.3,0.2c-1.2,1-2.5,1.7-3.7,1.7c0,0,0,0-0.1,0c-0.1,0-0.1,0,0,0c0.6,0,1.2,0,1.7-0.2
		c0.1,0,0.2,0,0.3-0.1c0.9-0.3,1.6-0.7,1.9-0.9c0.1-0.1,0.2-0.1,0.2-0.2l3.5,3.9l0,0L70.9,31c0,0,0.2,0.2,0.2,0.3l-0.1,0.1
		c-0.1,0-2.4-2.7-3.3-3.8c-0.2,0.1-0.3,0.1-0.5,0.2C65.5,28.6,63.5,28.3,63.2,28.2L63.2,28.2z M63.2,27l0.9-0.5l-0.3-0.9l-0.6,0.6
		V27L63.2,27z M63.9,25.4c0,0.3,0.1,0.5,0.2,0.8l0,0c0,0.1,0,0.1,0.1,0.2l1.5-0.8c-0.5-0.5-0.9-0.8-1.1-0.9L63.9,25.4L63.9,25.4z
		 M64.7,24.6c0.4,0.3,0.8,0.6,1.2,0.9l1.4-0.8l3.2,3.7l1.6-0.1l0-0.2c0,0,0.3,0,0.3,0l0-0.1c-0.1,0-1.1,0-2.2,0.1l0,0L70,28
		c0.8,0,1.6-0.1,2.5-0.2c-0.1-0.6-0.5-1.2-1-1.9c-0.2-0.2-0.4-0.5-0.7-0.7c-0.2-0.2-0.5-0.5-0.8-0.6c-0.2,0-0.4,0-0.7,0
		c-0.7,0-1.4,0-2.1,0L64.7,24.6L64.7,24.6L64.7,24.6z M64.7,24.4L64.7,24.4c0.4-0.3,0.8-0.6,1.1-0.9l1.4,0.8L70,21
		c0.8,0,1.6,0.1,2.5,0.2l0,0c-0.1,0.6-0.5,1.2-1,1.9c-0.2,0.2-0.4,0.5-0.7,0.7c-0.2,0.2-0.5,0.5-0.8,0.6c-0.2,0-0.4,0-0.7,0
		c-0.7,0-1.4,0-2.1,0L64.7,24.4L64.7,24.4z M64.6,24.3c0.1-0.1,0.6-0.4,1.1-0.9l-1.5-0.8c0,0.1,0,0.1-0.1,0.2
		c-0.1,0.3-0.2,0.5-0.2,0.8L64.6,24.3L64.6,24.3z M62.8,26l1.5-1.5L62.8,23v-2.1h-2.1l-1.5-1.5l-1.5,1.5h-2.1V23l-1.5,1.5l1.5,1.5
		v2.1h2.1l1.5,1.5l1.5-1.5h2.1V26L62.8,26z M54.2,36.3L54.2,36.3c0,0,0.2,0.1,0.3,0.1c0.2,0.3,0.2,0.3,0.5,0.7h0.3
		c0,0.1,0,0.4,0,0.4l0.3,0c0,0.1,0,0.2,0,0.3l0.3,0c0,0.1,0,0.2,0,0.3c0.8-0.2,1.4-0.6,1.9-1c0.5-0.4,1-0.9,1.4-1.4c0,0,0,0,0.1-0.1
		c0,0,0.1,0.1,0.1,0.1c0.4,0.5,0.9,1,1.4,1.4c0.5,0.4,1.2,0.8,1.9,1c0-0.1,0-0.2,0-0.3l0.3,0c0-0.1,0-0.2,0-0.3l0.3,0
		c0,0,0-0.2,0-0.4h0.3c0.2-0.4,0.3-0.5,0.5-0.7c0.1,0,0.2,0,0.3,0l0,0c0.3,0,0.3,0.1,0.7,0.2l0.2-0.2c0.1,0.1,0.3,0.2,0.3,0.2
		l0.2-0.2c0.1,0.1,0.2,0.2,0.3,0.2l0.2-0.2c0.1,0,0.1,0.1,0.2,0.2c0.4-0.7,0.6-1.4,0.7-2.1c0.1-0.7,0.1-1.3,0-2c0,0,0-0.1,0-0.1
		c0,0,0.1,0,0.1,0c0.7,0.1,1.3,0.1,2,0c0.7-0.1,1.4-0.2,2.1-0.7c0-0.1-0.1-0.1-0.2-0.2l0.2-0.2c-0.1-0.1-0.1-0.2-0.2-0.3l0.2-0.2
		c0,0-0.2-0.2-0.2-0.3l0.2-0.2C71,29.9,71,29.8,71,29.5c0,0,0.2-0.2,0.2-0.2l-0.3-0.4c0.3,0,0.5,0,0.7-0.1c0,0-0.3,0.2-0.5,0.3
		l0.1,0.1c0.2-0.1,0.3-0.2,0.7-0.4l0-0.3c0.1,0,0.4,0,0.4,0l0-0.3c0.1,0,0.2,0,0.3,0l0-0.3c0.1,0,0.2,0,0.3,0
		c-0.2-0.8-0.6-1.4-1-1.9c-0.4-0.5-0.9-1-1.4-1.4c0,0,0,0-0.1-0.1c0,0,0.1-0.1,0.1-0.1c0.5-0.4,1-0.9,1.4-1.4c0.4-0.5,0.8-1.2,1-1.9
		c-0.1,0-0.2,0-0.3,0l0-0.3c-0.1,0-0.2,0-0.3,0l0-0.3c0,0-0.2,0-0.4,0v-0.3c-0.4-0.2-0.5-0.3-0.7-0.4l0,0c0,0-0.1-0.2-0.2-0.2
		c0.1-0.3,0.1-0.4,0.2-0.8L71,18.5c0.1-0.1,0.2-0.3,0.2-0.3L71,18c0.1-0.1,0.2-0.2,0.2-0.3L71,17.6c0-0.1,0.1-0.1,0.2-0.2
		c-0.7-0.4-1.4-0.6-2.1-0.7c-0.7-0.1-1.3-0.1-2,0c0,0-0.1,0-0.1,0c0,0,0-0.1,0-0.1c0.1-0.7,0.1-1.3,0-2c-0.1-0.7-0.2-1.4-0.7-2.1
		c-0.1,0-0.1,0.1-0.2,0.2L66,12.5c-0.1,0.1-0.2,0.1-0.3,0.2l-0.2-0.2c0,0-0.2,0.2-0.3,0.2L65,12.5c-0.4,0.1-0.5,0.1-0.7,0.2l0,0
		c0,0-0.2,0-0.3,0c-0.2-0.3-0.2-0.3-0.5-0.7h-0.3c0-0.1,0-0.4,0-0.4l-0.3,0c0-0.1,0-0.2,0-0.3l-0.3,0c0-0.1,0-0.2,0-0.3
		c-0.8,0.2-1.4,0.6-1.9,1c-0.5,0.4-1,0.9-1.4,1.4c0,0,0,0-0.1,0.1c0,0-0.1-0.1-0.1-0.1c-0.4-0.5-0.9-1-1.4-1.4
		c-0.5-0.4-1.2-0.8-1.9-1c0,0.1,0,0.2,0,0.3l-0.3,0c0,0.1,0,0.2,0,0.3l-0.3,0c0,0,0,0.2,0,0.4h-0.3c-0.2,0.4-0.3,0.5-0.5,0.7
		c-0.1,0-0.2,0-0.3,0l0,0c-0.3,0-0.3-0.1-0.7-0.2l-0.2,0.2c-0.1-0.1-0.3-0.2-0.3-0.2l-0.2,0.2c-0.1-0.1-0.2-0.2-0.3-0.2l-0.2,0.2
		c-0.1,0-0.1-0.1-0.2-0.2c-0.4,0.7-0.6,1.4-0.7,2.1c-0.1,0.7-0.1,1.3,0,2c0,0,0,0.1,0,0.1c0,0-0.1,0-0.1,0c-0.7-0.1-1.3-0.1-2,0
		c-0.7,0.1-1.4,0.2-2.1,0.7c0,0.1,0.1,0.1,0.2,0.2l-0.2,0.2c0.1,0.1,0.1,0.2,0.2,0.3l-0.2,0.2c0,0,0.2,0.2,0.2,0.3l-0.2,0.2
		c0.1,0.4,0.1,0.5,0.2,0.8c0,0-0.2,0.2-0.2,0.2l0,0c-0.2,0.1-0.3,0.2-0.7,0.4l0,0.3c-0.1,0-0.4,0-0.4,0l0,0.3c-0.1,0-0.2,0-0.3,0
		l0,0.3c-0.1,0-0.2,0-0.3,0c0.2,0.8,0.6,1.4,1,1.9c0.4,0.5,0.9,1,1.4,1.4c0,0,0,0,0.1,0.1c0,0-0.1,0.1-0.1,0.1
		c-0.5,0.4-1,0.9-1.4,1.4c-0.4,0.5-0.8,1.2-1,1.9c0.1,0,0.2,0,0.3,0l0,0.3c0.1,0,0.2,0,0.3,0l0,0.3c0,0,0.2,0,0.4,0v0.3
		c0.4,0.2,0.5,0.3,0.7,0.4l0,0c0,0,0.1,0.2,0.2,0.2c-0.1,0.3-0.1,0.4-0.2,0.8l0.2,0.2c-0.1,0.1-0.2,0.3-0.2,0.3l0.2,0.2
		c-0.1,0.1-0.2,0.2-0.2,0.3l0.2,0.2c0,0.1-0.1,0.1-0.2,0.2c0.7,0.4,1.4,0.6,2.1,0.7c0.7,0.1,1.3,0.1,2,0c0,0,0.1,0,0.1,0
		c0,0,0,0.1,0,0.1c-0.1,0.7-0.1,1.3,0,2c0.1,0.7,0.2,1.4,0.7,2.1c0.1,0,0.1-0.1,0.2-0.2l0.2,0.2c0.1-0.1,0.2-0.1,0.3-0.2l0.2,0.2
		c0,0,0.2-0.2,0.3-0.2l0.2,0.2C53.8,36.3,53.9,36.3,54.2,36.3L54.2,36.3z M70.5,20.5l1.6,0.1l0,0.2c0,0,0.3,0,0.3,0l0,0.1
		c-0.1,0-1.1,0-2.2-0.1L70.5,20.5L70.5,20.5z M70.8,20.2c0.5,0,0.9,0.1,0.9,0.1l0,0.2c0,0-0.5,0-1.1-0.1L70.8,20.2L70.8,20.2z
		 M70.8,20.1l0.2-0.2l0,0c0.2,0.1,0.5,0.3,0.5,0.3C71.4,20.1,71.1,20.1,70.8,20.1L70.8,20.1z M70.8,19.6L70.8,19.6L70.8,19.6
		l-2.5,3.2l0,0c-0.3,0.3-0.6,0.7-0.9,1c0-0.2,0.1-0.4,0.1-0.6c0-0.2,0.1-0.4,0.1-0.4c0.1-0.1,2.6-2.8,3.4-3.9
		C71,18.9,70.8,19.6,70.8,19.6L70.8,19.6z M71,18.7L71,18.7c0,0.1-2.5,3-3.4,4c-0.8-0.7-1.7-1.3-2.3-1.6c0.8,0.2,1.5,0.6,2.3,1.2
		c1.1-1.1,3.3-3.7,3.3-3.7L71,18.7L71,18.7z M64.4,13.7l0,0.5c0.9-0.8,1.6-1.4,1.6-1.5L66,12.6c0,0-0.3,0.2-0.3,0.2l-0.2-0.2
		L64.4,13.7L64.4,13.7z M64.4,13.6c0.5-0.4,0.8-0.7,0.8-0.7l-0.1-0.1l0,0c0,0-0.3,0.2-0.7,0.6L64.4,13.6L64.4,13.6z M64.9,12.7
		c0,0-0.4,0.1-0.6,0.1l0,0.3C64.5,13,64.7,12.8,64.9,12.7L64.9,12.7L64.9,12.7z M64,12.9L64,12.9l0.1,0c0.1,1.8,0.3,3.6,0.4,5.4
		c-0.1-0.1-0.3-0.3-0.4-0.5c-0.1-0.2-0.2-0.4-0.2-0.4c0-0.2-0.2-3.8-0.4-5.2C63.6,12.2,64,12.9,64,12.9L64,12.9z M63.3,12.1
		L63.3,12.1l0.2,0c0.1,0,0.3,3.9,0.4,5.3c-1,0.1-2.1,0.3-2.7,0.5c0.7-0.4,1.5-0.6,2.4-0.8C63.5,15.5,63.2,12.1,63.3,12.1L63.3,12.1z
		 M55,12.1c-0.1,0-0.3,3.9-0.4,5.3c1,0.1,2.1,0.3,2.7,0.5c-0.7-0.4-1.5-0.6-2.4-0.8c0-1.6,0.3-4.9,0.3-5L55,12.1L55,12.1L55,12.1z
		 M54.3,12.9L54.3,12.9l0.1,0c0,0,0.4-0.7,0.4-0.7c-0.2,1.4-0.3,5-0.4,5.2c0,0-0.1,0.2-0.2,0.4c-0.1,0.2-0.3,0.4-0.4,0.5
		C54,16.4,54.2,14.6,54.3,12.9L54.3,12.9z M54.1,12.8L54.1,12.8l0,0.3c-0.2-0.2-0.4-0.3-0.6-0.5C53.6,12.7,53.9,12.8,54.1,12.8
		L54.1,12.8z M54.1,13.6c-0.5-0.4-0.8-0.7-0.8-0.7l0.1-0.1c0,0,0.3,0.2,0.7,0.6L54.1,13.6L54.1,13.6z M54.1,13.7l0,0.5
		c-0.9-0.8-1.6-1.4-1.6-1.5l0.1-0.1l0,0c0,0,0.3,0.2,0.3,0.2l0.2-0.2L54.1,13.7L54.1,13.7z M47.6,18.6l-0.1,0.1c0,0.1,2.5,3,3.4,4
		c0.8-0.7,1.7-1.3,2.3-1.6c-0.8,0.2-1.5,0.6-2.3,1.2C49.8,21.2,47.6,18.6,47.6,18.6L47.6,18.6L47.6,18.6z M47.4,18.8
		c0,0,0.2,0.8,0.2,0.8l-0.1,0.1l2.6,3.1l0,0c0.3,0.3,0.6,0.7,0.9,1c0-0.2-0.1-0.4-0.1-0.6c0-0.2-0.1-0.4-0.1-0.4
		C50.7,22.6,48.3,19.9,47.4,18.8L47.4,18.8L47.4,18.8z M47.7,20.2c-0.5,0-0.9,0.1-0.9,0.1l0,0.2c0,0,0.5,0,1.1-0.1L47.7,20.2
		L47.7,20.2z M47.6,20.1l-0.2-0.2c-0.2,0.1-0.5,0.3-0.5,0.3C47.1,20.1,47.3,20.1,47.6,20.1L47.6,20.1L47.6,20.1z M46.4,20.9
		c0,0-0.3,0-0.3,0l0,0.1c0.1,0,1.1,0,2.2-0.1L48,20.5l-1.6,0.1L46.4,20.9L46.4,20.9L46.4,20.9z M46.8,28.5L46.8,28.5
		c0,0,0.5,0,1.1,0.1l-0.2,0.2c-0.5,0-0.9-0.1-0.9-0.1L46.8,28.5L46.8,28.5z M47.4,29.2L47.4,29.2c-0.2-0.1-0.5-0.3-0.5-0.3
		c0.2,0,0.4,0,0.7,0.1L47.4,29.2L47.4,29.2z M47.6,29.4c0,0-0.2,0.8-0.2,0.8c0.9-1.1,3.3-3.8,3.4-3.9c0,0,0-0.2,0.1-0.4
		c0-0.2,0.1-0.5,0.1-0.6c-0.3,0.3-0.6,0.7-0.9,1v0L47.6,29.4L47.6,29.4L47.6,29.4L47.6,29.4z M47.4,30.3l0.1,0.1
		c0.1,0,2.2-2.6,3.3-3.7c0.8,0.5,1.5,0.9,2.3,1.2c-0.6-0.3-1.5-0.9-2.3-1.6C50,27.3,47.4,30.3,47.4,30.3L47.4,30.3L47.4,30.3z
		 M54.1,35.3l0-0.5c-0.9,0.8-1.6,1.4-1.6,1.5l0.1,0.1c0,0,0.3-0.2,0.3-0.2l0.2,0.2L54.1,35.3L54.1,35.3z M54.1,35.4
		c-0.5,0.4-0.8,0.7-0.8,0.7l0.1,0.1l0,0c0,0,0.3-0.2,0.7-0.6L54.1,35.4L54.1,35.4z M54.4,36.1c0,0,0.4,0.7,0.4,0.7
		c-0.2-1.4-0.3-5-0.4-5.2c0,0-0.1-0.2-0.2-0.4c-0.1-0.2-0.3-0.4-0.4-0.5c0.1,1.8,0.3,3.6,0.4,5.4L54.4,36.1L54.4,36.1L54.4,36.1z
		 M55.2,36.9L55.2,36.9l-0.2,0c-0.1,0-0.3-3.9-0.4-5.3c1-0.1,2.1-0.3,2.7-0.5c-0.7,0.4-1.5,0.6-2.4,0.8
		C54.9,33.5,55.2,36.9,55.2,36.9L55.2,36.9z M63.4,36.9c0.1,0,0.3-3.9,0.4-5.3c-1-0.1-2.1-0.3-2.7-0.5c0.7,0.4,1.5,0.6,2.4,0.8
		c0,1.5-0.3,4.9-0.3,5L63.4,36.9L63.4,36.9L63.4,36.9z M64.1,36.1L64.1,36.1l-0.1,0c0,0-0.4,0.7-0.4,0.7c0.2-1.4,0.3-5,0.4-5.2
		c0,0,0.1-0.2,0.2-0.4c0.1-0.2,0.3-0.4,0.4-0.5C64.4,32.6,64.3,34.4,64.1,36.1L64.1,36.1z M64.3,36.2L64.3,36.2l0-0.3
		c0.2,0.2,0.4,0.3,0.6,0.5C64.9,36.3,64.5,36.2,64.3,36.2L64.3,36.2z M65.1,36.3L65.1,36.3c0,0-0.3-0.2-0.7-0.6l0-0.3
		c0.5,0.4,0.8,0.7,0.8,0.7L65.1,36.3L65.1,36.3z M70.9,30.4l0.1-0.1c0-0.1-2.5-3-3.4-4c-0.8,0.7-1.7,1.3-2.3,1.6
		c0.8-0.2,1.5-0.6,2.3-1.2C68.6,27.8,70.8,30.4,70.9,30.4L70.9,30.4L70.9,30.4z M70.9,29.3c-1.2-1.4-2.3-2.7-3.5-4.1
		c0,0.2,0.1,0.4,0.1,0.6c0,0.2,0.1,0.4,0.1,0.4c0.1,0.1,2.6,2.8,3.4,3.9C71,30.1,70.8,29.4,70.9,29.3L70.9,29.3L70.9,29.3L70.9,29.3
		z M70.8,28.8c0.5,0,0.9-0.1,0.9-0.1l0-0.2c0,0-0.5,0-1.1,0.1L70.8,28.8L70.8,28.8z"/>
	<g>
		<path class="st9" d="M60.2,27.1L60.2,27.1L60.2,27.1z"/>
		<path class="st9" d="M57.1,26.5L57.1,26.5C57.2,26.5,57.2,26.5,57.1,26.5L57.1,26.5z"/>
		<path class="st0" d="M58.7,27.5L58.7,27.5L58.7,27.5C58.7,27.4,58.7,27.4,58.7,27.5L58.7,27.5C58.6,27.5,58.7,27.5,58.7,27.5
			L58.7,27.5z M58.9,27.6L58.9,27.6c0.1,0,0.2,0,0.2,0C59,27.5,59,27.5,58.9,27.6C58.9,27.5,58.9,27.5,58.9,27.6
			C58.9,27.5,58.8,27.5,58.9,27.6L58.9,27.6L58.9,27.6L58.9,27.6z M59.5,27.5L59.5,27.5c0.1,0,0.2,0,0.2-0.1v0
			C59.7,27.4,59.6,27.5,59.5,27.5C59.5,27.5,59.5,27.5,59.5,27.5C59.5,27.5,59.5,27.5,59.5,27.5L59.5,27.5z M59.9,27.4L59.9,27.4
			l0.1,0c0,0,0,0,0,0C59.9,27.3,59.9,27.4,59.9,27.4C59.8,27.4,59.8,27.4,59.9,27.4L59.9,27.4z"/>
		<path class="st0" d="M59.3,27.4C59.3,27.4,59.3,27.4,59.3,27.4C59.3,27.4,59.3,27.4,59.3,27.4L59.3,27.4z"/>
		<path class="st0" d="M59.3,27.3C59.3,27.3,59.3,27.3,59.3,27.3C59.4,27.2,59.3,27.3,59.3,27.3z"/>
		<path class="st0" d="M59,27.2C59,27.2,59,27.2,59,27.2L59,27.2z"/>
		<path class="st0" d="M58.7,27.2C58.7,27.2,58.7,27.2,58.7,27.2C58.7,27.2,58.7,27.2,58.7,27.2z"/>
		<path class="st0" d="M60.2,27.1L60.2,27.1L60.2,27.1z"/>
		<path class="st0" d="M59.9,27.1L59.9,27.1C59.9,27.1,59.9,27.1,59.9,27.1z"/>
		<path class="st0" d="M60.6,26.7l0.2-0.1c0,0,0,0,0,0C60.7,26.7,60.6,26.7,60.6,26.7L60.6,26.7z"/>
		<path class="st0" d="M57.2,26.5L57.2,26.5C57.2,26.5,57.2,26.5,57.2,26.5L57.2,26.5z"/>
		<path class="st0" d="M60.8,26.5c0.1,0,0.2,0,0.2-0.1l0,0C61,26.4,60.9,26.5,60.8,26.5L60.8,26.5z"/>
		<path class="st10" d="M58.8,28.3c0.2,0,0.3-0.2,0.5-0.2c0.1,0,0.1,0,0.2,0.1c0.1,0.1,0.3,0.1,0.4,0c0,0,0-0.1,0-0.1c0,0,0,0,0,0
			c-0.1,0-0.3-0.1-0.4-0.2c0.2,0,0.4,0.2,0.6,0.2c0,0,0.1,0,0.1,0c0,0,0,0,0,0c-0.2-0.1-0.3-0.1-0.5-0.2c0.2,0,0.3,0.1,0.5,0.2
			c0.1,0,0.2,0.1,0.2,0.1c-0.1,0-0.2,0.1-0.3,0.1c0,0,0,0,0,0c0.1,0.1,0.2,0.1,0.3,0c0.1,0,0.2-0.1,0.3-0.1l0.1-0.2h0.1c0,0,0,0,0,0
			l-0.1,0.1c0,0,0,0,0,0c0.1,0,0.2-0.1,0.3-0.2l0.1-0.2c0,0,0,0,0,0l0,0c-0.2,0-0.3,0.1-0.5,0.1h0c0.4,0,0.8-0.2,1.1-0.3
			c0,0,0,0,0,0c-0.2,0.1-0.4,0.2-0.7,0.2c0.2,0,0.3-0.1,0.5-0.2c0.2-0.1,0.3-0.2,0.5-0.3v0c0,0,0,0,0,0c-0.1,0.1-0.4,0.2-0.5,0.2
			c0,0,0,0,0,0c0.2-0.1,0.3-0.1,0.5-0.2c0.1-0.1,0.2-0.1,0.3-0.3c0,0,0,0,0,0c-0.1,0.1-0.2,0.1-0.3,0.2c0,0.1-0.2,0.1-0.2,0.1
			c0,0,0,0,0,0c0.1,0,0.2-0.1,0.3-0.2c0.1-0.1,0.2-0.2,0.3-0.3l0,0c-0.1,0.1-0.3,0.2-0.4,0.3c0.2-0.1,0.4-0.3,0.5-0.5l0,0
			c-0.1,0.1-0.2,0.2-0.2,0.2c0.2-0.2,0.4-0.4,0.5-0.7c0,0,0,0,0,0c-0.1,0.2-0.2,0.4-0.4,0.4c0.2-0.1,0.2-0.3,0.4-0.5
			c0-0.1,0.1-0.1,0.1-0.2c0,0,0,0,0,0c0,0.1-0.1,0.2-0.2,0.3c0-0.1,0.1-0.2,0.1-0.3c0-0.1,0.1-0.1,0.1-0.2c0,0,0,0,0,0l-0.1,0.2v0
			l0.2-0.6h0c0,0.1-0.1,0.2-0.1,0.3c0,0,0,0,0,0l0.1-0.4h0l-0.1,0.3l0.1-0.4h0l-0.1,0.2c-0.1-0.2,0-0.3,0.1-0.5l0,0
			c0,0.1,0,0.4-0.1,0.5c0,0,0,0,0,0l0-0.3l0,0L62.4,25c0,0,0,0,0,0c0-0.2,0.1-0.4,0.1-0.5c0,0.1-0.1,0.2-0.1,0.3
			c0,0.1-0.1,0.2-0.1,0.3c-2.8,3.7-5.6,1-6.2-0.6c0,0,0,0,0,0c0,0,0-0.1-0.1-0.1c-0.1-0.1-0.1,0-0.1,0c0,0.1-0.1,0.2,0,0.3
			c0,0,0,0,0,0l0,0.1c0,0,0,0,0,0c0,0-0.1,0-0.1,0.1c0,0,0,0.1,0,0.1l-0.1,0c0,0,0,0.1,0,0.1c0,0,0.1,0.1,0.1,0.1v0.1l0.1,0
			c0,0.1,0,0.2,0.1,0.3c0,0,0.1,0,0.1,0c0,0.1,0,0.2,0.1,0.3c0,0,0,0,0,0c0,0.1-0.1,0.1-0.1,0.2c0,0,0,0.1,0,0.2
			c0.1,0.1,0.2,0,0.3,0.1c0,0,0,0,0,0c0,0-0.1,0-0.1,0.1c0,0.1,0,0.1,0,0.2c0,0,0.1,0,0.1,0l-0.1,0.1l0,0.1c0.1,0,0.2,0.1,0.3,0.1v0
			h0.1c0,0.1,0.1,0.1,0.1,0.2c0,0,0,0,0,0c0,0,0,0,0,0c0,0,0,0-0.1,0c0,0-0.1,0.1-0.1,0.1c0,0.1,0,0.1,0.1,0.1
			c0.1,0.1,0.1,0.1,0.2,0c0,0,0,0.1,0.1,0.1c0,0,0,0,0.1,0c0,0.1,0,0.2,0,0.3c0,0,0,0,0.1,0c0.1,0,0.2-0.1,0.2-0.2c0,0,0.1,0,0.2,0
			c0,0,0,0,0,0.1c0,0-0.1,0.2,0,0.2c0,0.1,0,0.1,0.1,0.1c0.1,0,0.2,0,0.2,0c0,0,0-0.1,0-0.1c0,0,0,0,0,0c0.1,0,0.2,0,0.2,0
			c0,0,0,0,0,0c0,0,0.1,0.1,0.1,0c0,0,0,0,0.1,0c0,0,0,0,0,0c0,0.1,0,0.1,0.1,0.1c0,0,0,0,0,0.1c0,0,0,0,0.1,0
			c0.3,0,0.5-0.3,0.8-0.3c0,0,0.1,0,0.1,0c0,0,0,0,0,0h0c0,0,0,0,0,0l-0.1,0c0,0,0,0,0,0c0,0,0,0,0,0c0,0,0,0,0,0h0c0,0,0,0,0,0l0,0
			c0,0,0,0,0,0c0,0,0,0,0,0h0c0,0,0,0,0,0h0l-0.1,0h0c0,0,0,0,0,0c0,0,0,0,0,0c0,0,0,0-0.1,0h0c0,0,0,0,0,0v0h-0.1c0,0,0,0,0,0
			c-0.1,0-0.2,0-0.2,0L58.8,28.3C58.7,28.2,58.7,28.2,58.8,28.3C58.7,28.3,58.7,28.3,58.8,28.3L58.8,28.3z M56.2,25.7
			C56.2,25.7,56.2,25.7,56.2,25.7C56.2,25.7,56.2,25.6,56.2,25.7L56.2,25.7C56.3,25.7,56.3,25.7,56.2,25.7
			C56.3,25.7,56.3,25.7,56.2,25.7C56.3,25.7,56.2,25.7,56.2,25.7L56.2,25.7z"/>
		<path class="st10" d="M56.3,25.4C56.3,25.4,56.3,25.4,56.3,25.4L56.3,25.4L56.3,25.4L56.3,25.4z"/>
		<path class="st11" d="M55.8,25.4l0.1-0.1c-0.1-0.1-0.1-0.1-0.2-0.1c0,0,0,0,0,0C55.7,25.2,55.7,25.2,55.8,25.4
			C55.7,25.3,55.8,25.3,55.8,25.4L55.8,25.4z M56.7,27L56.7,27L56.7,27c0-0.1,0.1-0.1,0-0.2c0,0-0.1,0-0.2,0.1l0,0
			C56.6,27,56.7,27,56.7,27L56.7,27z M57.2,28L57.2,28c0.1,0,0.1-0.1,0.2-0.2c-0.1,0-0.1-0.1-0.2-0.1C57.2,27.8,57.2,27.9,57.2,28
			C57.2,27.9,57.2,28,57.2,28L57.2,28z M58.3,27.9L58.3,27.9C58.3,27.9,58.3,27.9,58.3,27.9L58.3,27.9L58.3,27.9L58.3,27.9
			C58.3,27.9,58.3,27.9,58.3,27.9C58.4,27.9,58.4,27.9,58.3,27.9C58.4,27.9,58.4,27.9,58.3,27.9C58.4,27.9,58.4,27.9,58.3,27.9
			C58.4,27.8,58.4,27.8,58.3,27.9c0.1-0.1,0.1-0.1,0.1-0.1c0,0,0,0,0,0c-0.1,0-0.1-0.1-0.2-0.1v0C58.2,27.8,58.2,27.8,58.3,27.9
			L58.3,27.9L58.3,27.9z M58.5,28L58.5,28C58.5,28,58.5,28,58.5,28L58.5,28C58.5,28,58.5,28,58.5,28L58.5,28
			C58.6,27.9,58.6,28,58.5,28C58.6,28,58.6,27.9,58.5,28C58.6,27.9,58.6,27.9,58.5,28L58.5,28l0.1-0.1c0,0,0,0,0,0l0,0c0,0,0,0,0,0
			C58.5,27.9,58.5,27.9,58.5,28z"/>
		<path class="st12" d="M58.5,28.2l0.1,0v0C58.6,28.1,58.5,28.1,58.5,28.2L58.5,28.2C58.5,28.1,58.5,28.1,58.5,28.2L58.5,28.2z
			 M58.8,28.2L58.8,28.2c0.1,0,0.2,0,0.2,0C58.9,28.2,58.9,28.1,58.8,28.2C58.8,28.2,58.8,28.2,58.8,28.2
			C58.8,28.2,58.7,28.2,58.8,28.2L58.8,28.2L58.8,28.2L58.8,28.2z M59.6,28.2L59.6,28.2c0.1,0,0.2,0,0.3-0.1v0
			C59.8,28.1,59.7,28.1,59.6,28.2C59.6,28.2,59.6,28.2,59.6,28.2C59.6,28.2,59.6,28.2,59.6,28.2L59.6,28.2z M60,28.1L60,28.1l0.1,0
			c0,0,0,0,0-0.1c0,0-0.1,0-0.1,0C59.9,28,59.9,28,60,28.1L60,28.1z"/>
		<path class="st13" d="M59.5,28.1L59.5,28.1L59.5,28.1l0.1,0h0h0.1c-0.1-0.1-0.2-0.1-0.3-0.1c0,0-0.1,0-0.1,0h0c0,0,0,0,0,0l0,0
			L59.5,28.1C59.4,28,59.4,28,59.5,28.1C59.4,28,59.4,28,59.4,28c0,0,0,0,0,0L59.5,28.1L59.5,28.1L59.5,28.1
			C59.4,28.1,59.5,28.1,59.5,28.1L59.5,28.1L59.5,28.1C59.6,28.1,59.6,28.1,59.5,28.1C59.5,28.1,59.5,28.1,59.5,28.1L59.5,28.1
			L59.5,28.1z M59.9,28L59.9,28C59.9,28,59.9,28,59.9,28L59.9,28C59.9,27.9,59.9,27.9,59.9,28L59.9,28l-0.1,0c0,0,0,0,0,0h0l0,0l0,0
			c0,0,0,0,0,0c0,0,0,0,0,0c0,0,0,0,0,0h0l0,0h0c0,0,0,0,0,0c0,0,0,0,0,0c0,0,0,0,0,0l-0.1,0c0,0,0,0,0,0h0h0v0c0,0,0,0,0.1,0
			C59.8,27.9,59.9,27.9,59.9,28L59.9,28L59.9,28L59.9,28z M59.5,27.7L59.5,27.7C59.5,27.7,59.5,27.6,59.5,27.7
			C59.5,27.6,59.5,27.6,59.5,27.7C59.6,27.6,59.6,27.6,59.5,27.7l0.1-0.1c0,0,0-0.1,0.1,0l0,0l0,0c0,0,0,0,0,0l0,0c0,0,0,0-0.1,0
			C59.6,27.5,59.6,27.6,59.5,27.7L59.5,27.7L59.5,27.7L59.5,27.7z M58.9,27.8L58.9,27.8C58.9,27.8,58.9,27.8,58.9,27.8v-0.1
			c0,0-0.1,0-0.2,0v0c0,0,0,0,0,0v0c0,0,0,0,0,0c0,0,0,0,0,0c0,0,0,0,0,0l0,0l0,0c0,0,0,0,0,0L58.9,27.8
			C58.8,27.7,58.8,27.7,58.9,27.8C58.8,27.7,58.8,27.7,58.9,27.8C58.9,27.7,58.9,27.7,58.9,27.8L58.9,27.8
			C58.9,27.7,58.9,27.7,58.9,27.8L58.9,27.8C58.9,27.8,58.9,27.7,58.9,27.8C58.9,27.7,58.9,27.8,58.9,27.8L58.9,27.8L58.9,27.8
			L58.9,27.8C58.9,27.8,58.9,27.8,58.9,27.8L58.9,27.8L58.9,27.8L58.9,27.8L58.9,27.8z M58.6,28.1L58.6,28.1
			C58.5,28.1,58.5,28.1,58.6,28.1l0.3-0.2v0c0,0,0,0,0,0c0.1,0,0.1,0,0.1-0.1c0,0,0,0,0.1,0c0,0,0,0,0,0c0,0,0,0,0,0c0,0,0,0,0,0
			l-0.1,0v0h0l0,0h0c0,0,0,0,0,0c0,0,0,0,0,0v0c0,0,0,0,0,0c0,0,0,0,0,0h0c0,0,0,0,0,0s0,0,0,0h0c0,0,0,0,0,0h0c0,0,0,0,0,0
			c0,0,0,0-0.1,0c0,0,0,0,0,0h0C58.8,28,58.8,28,58.6,28.1L58.6,28.1C58.7,28.1,58.7,28.1,58.6,28.1L58.6,28.1
			C58.6,28.1,58.6,28.1,58.6,28.1L58.6,28.1z"/>
		<path class="st0" d="M59.3,28C59.3,28,59.3,28,59.3,28C59.3,28,59.3,28,59.3,28L59.3,28z"/>
		<path class="st0" d="M59.3,27.9C59.3,27.9,59.3,27.9,59.3,27.9C59.4,27.8,59.3,27.9,59.3,27.9z"/>
		<path class="st0" d="M58.9,27.8C58.9,27.8,58.9,27.8,58.9,27.8L58.9,27.8z"/>
		<path class="st0" d="M58.5,27.7C58.5,27.7,58.5,27.7,58.5,27.7C58.5,27.7,58.5,27.7,58.5,27.7z"/>
		<path class="st0" d="M60.4,27.7L60.4,27.7L60.4,27.7z"/>
		<path class="st0" d="M60,27.7L60,27.7C60,27.7,60,27.7,60,27.7z"/>
		<path class="st10" d="M58.5,27.6C58.5,27.6,58.5,27.6,58.5,27.6L58.5,27.6L58.5,27.6z"/>
		<path class="st10" d="M58.5,27.6C58.5,27.6,58.5,27.6,58.5,27.6C58.5,27.6,58.5,27.5,58.5,27.6C58.5,27.6,58.5,27.6,58.5,27.6z"/>
		<path class="st10" d="M57.5,27.5C57.5,27.5,57.5,27.5,57.5,27.5C57.5,27.5,57.5,27.5,57.5,27.5z"/>
		<path class="st10" d="M57.6,27.4L57.6,27.4C57.6,27.4,57.6,27.4,57.6,27.4L57.6,27.4z"/>
		<path class="st0" d="M57.7,27.4L57.7,27.4L57.7,27.4L57.7,27.4C57.7,27.4,57.7,27.4,57.7,27.4z"/>
		<path class="st10" d="M57.6,27.4L57.6,27.4L57.6,27.4C57.6,27.4,57.6,27.4,57.6,27.4C57.7,27.4,57.6,27.4,57.6,27.4L57.6,27.4
			C57.6,27.3,57.6,27.3,57.6,27.4L57.6,27.4z"/>
		<path class="st10" d="M57.7,27.4L57.7,27.4C57.7,27.4,57.7,27.3,57.7,27.4L57.7,27.4z"/>
		<path class="st10" d="M57.5,27.3L57.5,27.3C57.6,27.3,57.5,27.3,57.5,27.3z"/>
		<path class="st10" d="M57.9,27.3L57.9,27.3C57.9,27.3,57.9,27.3,57.9,27.3L57.9,27.3z"/>
		<path class="st0" d="M58,27.3L58,27.3C58,27.3,58,27.3,58,27.3C58,27.3,58,27.3,58,27.3z"/>
		<path class="st10" d="M58.6,27.3C58.6,27.3,58.6,27.3,58.6,27.3C58.6,27.3,58.6,27.3,58.6,27.3C58.6,27.3,58.6,27.3,58.6,27.3
			C58.6,27.3,58.6,27.3,58.6,27.3L58.6,27.3z"/>
		<path class="st0" d="M57.9,27.2L57.9,27.2L57.9,27.2z"/>
		<path class="st14" d="M60.9,27.2l0.2-0.1c0,0,0,0,0,0C61,27.1,60.9,27.1,60.9,27.2L60.9,27.2z"/>
		<path class="st10" d="M58.6,27.1L58.6,27.1C58.6,27.1,58.6,27.1,58.6,27.1L58.6,27.1z"/>
		<path class="st0" d="M59.2,27.1L59.2,27.1C59.2,27.1,59.2,27.1,59.2,27.1L59.2,27.1C59.2,27.1,59.2,27.1,59.2,27.1L59.2,27.1z"/>
		<path class="st0" d="M56.7,27L56.7,27C56.8,27,56.8,27,56.7,27L56.7,27z"/>
		<path class="st0" d="M57.7,27L57.7,27L57.7,27L57.7,27L57.7,27C57.7,26.9,57.7,26.9,57.7,27C57.7,26.9,57.7,26.9,57.7,27
			C57.6,26.9,57.6,26.9,57.7,27C57.6,27,57.6,27,57.7,27C57.6,27,57.6,27,57.7,27C57.6,27,57.6,27,57.7,27C57.6,27,57.6,27,57.7,27
			C57.7,27,57.6,27,57.7,27L57.7,27z M57.7,27L57.7,27C57.7,27,57.7,27,57.7,27C57.7,27,57.7,27,57.7,27L57.7,27z M57.7,27L57.7,27
			L57.7,27C57.7,27,57.7,27,57.7,27L57.7,27C57.7,27,57.7,27,57.7,27C57.7,26.9,57.7,26.9,57.7,27L57.7,27L57.7,27L57.7,27z"/>
		<path class="st0" d="M57.7,27L57.7,27C57.7,27,57.7,27,57.7,27C57.6,27,57.7,27,57.7,27C57.7,27,57.7,27,57.7,27
			C57.7,27,57.7,27,57.7,27z"/>
		<path class="st14" d="M61.1,27c0.1,0,0.2,0,0.3-0.1l0,0C61.3,26.9,61.2,26.9,61.1,27L61.1,27z"/>
		<path class="st14" d="M61.4,26.8l0.2-0.1v0C61.6,26.6,61.5,26.7,61.4,26.8C61.4,26.7,61.4,26.7,61.4,26.8
			C61.4,26.7,61.4,26.8,61.4,26.8z"/>
		<path class="st15" d="M56.6,25.9C56.6,25.9,56.6,25.9,56.6,25.9L56.6,25.9L56.6,25.9C56.6,25.9,56.6,25.9,56.6,25.9L56.6,25.9
			C56.6,25.8,56.6,25.8,56.6,25.9C56.6,25.8,56.6,25.8,56.6,25.9C56.6,25.8,56.6,25.8,56.6,25.9L56.6,25.9c0.1-0.1,0.1-0.1,0.1-0.1
			c0,0,0,0,0,0c0,0,0,0,0,0c0,0,0,0,0,0c0-0.1-0.1-0.2-0.1-0.3c0,0,0,0,0,0.1c0,0.1,0,0.1,0.1,0.1c0,0,0,0,0.1,0
			C56.6,25.8,56.5,25.8,56.6,25.9L56.6,25.9L56.6,25.9z M56.2,25.8L56.2,25.8C56.2,25.8,56.2,25.8,56.2,25.8
			C56.2,25.8,56.2,25.8,56.2,25.8L56.2,25.8C56.2,25.8,56.1,25.7,56.2,25.8C56.1,25.7,56.1,25.7,56.2,25.8
			C56.1,25.7,56.1,25.7,56.2,25.8C56.1,25.7,56.2,25.7,56.2,25.8C56.2,25.7,56.2,25.7,56.2,25.8L56.2,25.8
			C56.2,25.7,56.2,25.7,56.2,25.8C56.2,25.7,56.2,25.7,56.2,25.8L56.2,25.8C56.2,25.7,56.2,25.7,56.2,25.8L56.2,25.8
			C56.2,25.7,56.2,25.7,56.2,25.8C56.2,25.7,56.2,25.7,56.2,25.8C56.2,25.7,56.2,25.7,56.2,25.8C56.3,25.7,56.3,25.7,56.2,25.8
			L56.2,25.8l0.1-0.1L56.2,25.8l0.1-0.1h0c0,0,0,0,0-0.1c0,0,0,0-0.1,0c0,0,0,0,0,0l0,0c0,0,0,0,0,0c0,0,0,0,0,0c0,0,0,0,0,0
			c0,0,0,0,0,0c0,0,0,0,0,0c0,0,0,0,0,0c0,0,0,0,0,0c0,0,0,0,0,0s0,0,0,0l-0.1-0.1l0.1,0l0,0c0,0,0,0,0,0c0,0,0,0,0,0c0,0,0,0,0,0h0
			c0-0.2-0.1-0.3-0.3-0.4h0c0.1,0,0.1,0.1,0.2,0.1c0-0.1,0-0.1-0.1-0.2c0-0.1-0.1-0.2-0.1-0.3c0,0,0,0,0,0c0.1,0.1,0.2,0.3,0.3,0.5
			v-0.1c-0.1-0.2-0.1-0.3-0.2-0.5c0,0,0,0,0,0c-0.1,0-0.1-0.1-0.1-0.1c0,0-0.1,0-0.1,0c0,0.1,0,0.1,0,0.2c0,0,0.1,0.1,0.1,0.1
			c0,0,0,0,0,0.1c0,0-0.1,0-0.1,0.1c0,0,0,0,0,0c0.1,0.1,0.2,0.2,0.2,0.3c0,0.1-0.1,0.1-0.1,0.2c0,0.1,0,0.1,0.1,0.2h0
			C56.1,25.7,56.1,25.7,56.2,25.8C56.1,25.7,56.1,25.7,56.2,25.8C56.1,25.8,56.1,25.8,56.2,25.8C56.1,25.8,56.1,25.8,56.2,25.8
			L56.2,25.8L56.2,25.8z M56.6,26.8c-0.1,0-0.1,0-0.2-0.1c0,0,0-0.1,0-0.1l0.1,0c0,0,0,0,0-0.1c0,0,0,0,0-0.1c-0.1,0-0.1,0-0.2,0
			c0,0-0.1,0-0.1,0c0,0,0-0.1,0-0.1c0,0,0,0,0.1,0c0,0,0.1,0,0.1-0.1c0-0.1-0.1-0.1-0.2-0.2c0,0,0-0.1,0.1-0.1c0,0,0.1,0,0.1,0
			c0.1,0,0.1,0.1,0.1,0.2c0,0,0,0,0,0c0.1,0,0.1,0,0.1-0.1c0,0,0,0,0,0c0,0,0.1,0,0.1,0.1c0,0,0,0.1,0,0.1v0.1h0c0,0,0,0,0,0v0
			c0,0,0,0,0,0l0,0l0,0l0,0c0,0,0,0,0,0h0c0,0,0,0,0,0l0,0.1c0,0,0,0,0,0v0c0,0,0,0,0,0c0,0,0,0,0,0.1c0,0,0,0,0,0l0,0l0,0l0-0.1V26
			c0,0,0,0,0,0c0,0.1,0,0.1,0,0.3c-0.1-0.1-0.2-0.3-0.3-0.4c0.1,0.2,0.2,0.3,0.3,0.4l-0.2,0c0,0,0,0,0,0c0.1,0,0.1,0,0.2,0.1
			c0,0,0.1,0,0.1,0l0.1,0v0.1c0,0,0,0,0,0l0,0c0,0,0,0,0,0c0,0,0,0,0,0l0,0v0h0c0,0,0,0,0,0h0v0h0c0,0,0,0,0,0c0,0,0,0,0,0
			c0,0,0,0,0,0c0,0,0,0,0.1,0c0,0,0,0,0,0c0,0,0,0,0,0L56.6,26.8l0.1,0C56.7,26.8,56.7,26.8,56.6,26.8L56.6,26.8L56.6,26.8
			L56.6,26.8z M57,27.2L57,27.2c0,0,0-0.1,0.1-0.1c0,0,0,0,0,0s0,0,0,0h0c0,0,0,0,0,0s0,0,0,0c0,0,0,0,0,0s0,0,0,0c0,0,0,0,0,0v0h0
			l-0.1,0c0,0,0,0,0,0c0,0,0,0,0,0l0.2,0h0c0,0,0,0,0,0c0,0,0,0,0,0c0,0,0,0,0,0h0l0,0h0c0,0,0,0,0,0c0,0,0,0,0,0
			c0-0.1-0.1-0.1-0.1-0.2l-0.3-0.1c0.1,0,0.2,0,0.2,0c-0.1-0.1-0.2-0.2-0.3-0.4v0c0,0,0,0,0.1,0.1c0.1,0.1,0.2,0.2,0.2,0.3
			c0-0.1,0-0.2,0.1-0.2c-0.1,0.2,0,0.3,0.1,0.5c0,0,0,0,0,0h0c0,0,0,0,0,0c0,0,0,0,0,0c0,0,0,0,0,0c0,0,0,0,0,0l0-0.1v0.1
			c0,0,0,0,0,0c0,0,0,0,0,0v0v0c0,0,0,0,0,0c0,0,0,0,0,0h0.1c0,0,0,0,0,0c0,0,0,0,0,0l0,0l0.1,0.1c0,0,0,0,0,0h0c0,0,0,0,0,0
			c0,0,0,0,0,0l0,0c0,0,0,0,0,0c0,0,0,0,0,0c0,0,0,0,0,0c0,0,0,0,0,0c0,0,0,0,0,0c0,0,0,0,0,0v0l0,0c0,0,0,0,0,0c0,0,0,0,0,0
			c0,0,0,0,0,0c0,0,0,0,0,0h0l0-0.1c0-0.1,0-0.1,0-0.1c-0.1-0.1-0.1,0-0.2,0c0-0.1,0-0.2-0.1-0.2l0,0c-0.1,0-0.1,0.1-0.1,0
			c0,0,0-0.2-0.1-0.2c-0.1,0-0.1,0-0.2,0c0,0,0,0.1,0,0.2c0,0.1,0,0.1,0.1,0.1c0,0,0,0.1,0,0.1c0,0.1,0,0.1,0,0.1h0l0,0
			c0,0.1,0.2,0.1,0.1,0.3c0,0.1-0.1,0.1-0.1,0.1c0,0,0,0,0,0C56.9,27.1,56.9,27.2,57,27.2C57,27.2,57,27.2,57,27.2L57,27.2z
			 M57.4,27.8L57.4,27.8C57.4,27.7,57.4,27.7,57.4,27.8c0-0.1,0-0.1,0-0.1h0v0c0,0,0,0,0,0v0c0,0,0,0,0,0c0,0,0,0,0,0
			c0,0,0-0.1-0.1-0.1c-0.1,0-0.1,0.1-0.1,0.1c0,0-0.1,0-0.1,0l0,0c0,0,0-0.1,0-0.1c0,0-0.1,0-0.2,0c-0.1,0-0.1,0-0.1-0.1
			c0,0,0-0.1,0-0.1c0,0,0.1,0,0.1,0c0.1,0,0.1,0,0.1,0c0,0,0-0.1,0-0.1c0,0,0-0.1,0-0.1c0.1,0,0.2,0,0.2,0c0,0,0.1-0.1,0.1-0.1
			c0-0.1,0-0.1,0.1-0.1c0.1,0,0.2,0.1,0.2,0.2l0,0l0,0c0,0,0,0,0,0c0,0,0,0,0,0l0,0c0,0,0,0,0,0v0c0,0,0,0,0,0c0,0,0,0,0,0s0,0,0,0
			c0,0,0,0,0,0c0,0,0,0,0,0c0,0,0,0,0,0c-0.1,0-0.2-0.1-0.2-0.1c0,0,0,0,0,0l0.1,0.1c-0.1,0-0.2,0.1-0.3,0.1c0,0-0.1-0.1-0.2-0.1
			c0,0,0,0,0,0l0.2,0.1c-0.1,0.1-0.2,0-0.3,0.1c0,0,0,0,0,0c0.1,0,0.2,0,0.3,0c0,0,0,0.1-0.1,0.1c0,0,0,0,0,0c0.1,0,0.1-0.1,0.2-0.2
			c0.1,0,0.1,0,0.2,0c0,0-0.1,0.1-0.1,0.1c0,0,0,0.1,0,0.1c0,0,0.1-0.1,0.1-0.1c0,0,0.1,0,0.1,0c0,0,0,0,0,0l0,0l0,0h0l0,0
			c0,0,0,0,0,0c0,0,0,0,0,0c0,0,0,0,0,0s0,0,0,0h0v0h0c0,0,0,0,0,0h0c0,0,0,0,0,0h0h0l0,0c0,0,0,0,0,0l0,0l0,0v0c0,0,0,0,0,0v0
			c0,0,0,0,0,0l0,0c0,0,0,0,0,0v0.1c0,0,0,0,0,0c0,0,0,0,0,0C57.4,27.7,57.5,27.7,57.4,27.8L57.4,27.8L57.4,27.8z M57.7,28.2
			L57.7,28.2c0,0,0.1,0,0.1,0c0-0.1,0-0.2,0.1-0.2c0.1,0,0.2,0.1,0.2,0c0,0,0-0.1,0-0.1c0,0,0-0.1,0-0.1c0,0,0-0.1,0-0.1
			c0,0,0.1,0,0.1,0c0,0.1,0.1,0.1,0.1,0.1c0,0,0,0,0,0l0,0l0,0l0,0l0,0h0l0,0c0,0,0,0,0,0h0c0,0,0,0,0,0l-0.1,0c0,0,0,0,0,0s0,0,0,0
			l0,0c0,0-0.1,0-0.1,0c0,0,0,0,0,0h0c-0.1,0,0,0.1,0,0.2c0,0,0,0.1,0,0.1c0-0.1-0.1-0.1-0.1-0.2c-0.1,0.1-0.1,0.3-0.2,0.4
			c0-0.1,0-0.3,0.1-0.4l0,0c0,0-0.1,0.1-0.1,0.1v0c0-0.1,0.2-0.1,0.2-0.2c0,0,0,0,0,0h0l0-0.1h0v0c0,0,0-0.1,0-0.1h0l0,0
			c0,0,0,0,0,0c0,0,0,0,0,0l0,0h0c0,0,0,0,0,0l0,0h0c0,0,0,0,0,0l-0.1,0c0,0,0,0,0,0.1l0.1,0.1v0.1c0,0-0.1,0-0.1,0.1
			c0,0-0.1,0-0.2,0.1c-0.1,0-0.1,0-0.1,0.1c0,0.1,0,0.1,0,0.1c0.1,0,0.1,0,0.2,0c0,0.1,0,0.1,0,0.1c-0.1,0-0.1,0.1-0.1,0.2
			C57.6,28.1,57.6,28.2,57.7,28.2C57.7,28.2,57.7,28.2,57.7,28.2L57.7,28.2z M58.1,27.6C58.1,27.6,58.1,27.6,58.1,27.6
			C58,27.5,58,27.5,58,27.5l0-0.1c0.1,0,0.1-0.1,0.2-0.1c0,0,0-0.1,0-0.1c-0.1,0-0.2,0-0.3,0c0,0-0.1,0-0.1,0c0,0,0,0,0,0
			c0,0,0,0,0-0.1c0,0,0.1,0,0.1,0c0,0,0.1,0,0.1-0.1c0-0.1-0.1-0.1-0.2-0.1c-0.1,0-0.1-0.1-0.1-0.1l0,0v0c0,0,0.1-0.1,0.1-0.1
			c0.1,0.1,0.2,0.1,0.2,0.2c0,0,0.1,0,0.1,0l0.2,0.1c0,0,0,0,0,0.1c0,0,0,0.1,0,0.1c0.1,0,0.1,0,0.1,0c0.1,0,0.1,0,0.1,0
			c0,0,0,0.1,0,0.2c0,0.1-0.1,0.2-0.1,0.3c0-0.1-0.1-0.2-0.1-0.3c0,0,0,0,0,0c0,0,0,0,0,0v0.2c0-0.1-0.1-0.1-0.2-0.2l0-0.2
			c0,0,0,0,0,0c0,0,0,0,0,0l0,0.2c-0.1-0.1-0.2-0.2-0.3-0.3c0,0,0,0,0,0s0,0,0,0c0.1,0.1,0.2,0.2,0.3,0.3c0,0-0.1,0-0.2,0
			c0,0,0,0,0,0c0.1,0,0.2,0,0.2,0c0.1,0.1,0.2,0.2,0.2,0.2c0,0-0.1,0-0.2,0c0,0,0,0,0,0c0,0,0,0,0,0c0.1,0,0.2,0,0.2,0l0,0.1
			L58.1,27.6L58.1,27.6L58.1,27.6z M59.3,27.8L59.3,27.8L59.3,27.8c0.1-0.1,0.2-0.1,0.1-0.2c0,0,0,0,0,0c0,0-0.1-0.1-0.1-0.1
			c0-0.1,0.1-0.1,0.1-0.2c0,0-0.1,0-0.1-0.1c-0.1,0-0.1,0-0.1,0c0,0,0,0-0.1,0c0,0,0,0-0.1-0.1c0-0.1,0-0.1,0-0.2c0,0-0.1-0.1-0.1,0
			c-0.1,0-0.1,0.1-0.3,0.2h0c0,0,0,0,0,0c0,0,0,0,0,0c0,0,0,0,0,0l0,0c0,0,0,0,0,0c0,0,0,0,0,0c0,0,0,0,0,0v0l0,0h0c0,0,0,0,0,0v0
			c0.2,0,0.2-0.1,0.3-0.2l0,0.1l-0.1,0.1c0,0,0.1,0,0.2,0c0.1,0,0.1,0,0.2,0c0.1,0,0.1,0,0.2,0c0,0,0,0.1-0.1,0.1c0,0-0.1,0-0.1,0
			c0.1,0.1,0.1,0.2,0.2,0.3c0,0,0,0,0,0c-0.1,0-0.1-0.2-0.2-0.2c0,0.1,0,0.1,0,0.2c0,0,0,0,0,0c0-0.1,0-0.2-0.1-0.2
			c-0.1-0.1-0.2-0.1-0.3,0c0,0,0.1,0.1,0.1,0.1c0,0,0,0,0,0c0-0.1-0.1-0.1-0.1-0.1l0,0h0c0,0,0,0,0,0h0c0,0,0,0,0,0c0,0,0,0,0,0
			c0,0,0,0,0,0c0,0,0,0,0,0c0,0,0,0,0,0c0,0,0,0,0,0h0l0,0c0,0,0,0,0,0c0,0,0,0,0,0c0,0,0,0.1,0,0.1v0h0c0,0,0,0,0,0l0,0v0h0l0,0
			c0.1,0,0.1,0,0.2,0c0,0,0.1-0.1,0.1,0c0,0,0,0,0,0c0.1,0,0.1,0.2,0.1,0.2c0,0,0.1,0,0.1,0c0,0,0.1-0.1,0.1-0.1
			C59.2,27.8,59.2,27.8,59.3,27.8C59.3,27.8,59.3,27.8,59.3,27.8z"/>
		<path class="st10" d="M56.5,25.8C56.5,25.8,56.5,25.8,56.5,25.8C56.5,25.8,56.5,25.8,56.5,25.8C56.5,25.8,56.5,25.8,56.5,25.8
			L56.5,25.8z"/>
		<path class="st16" d="M62.1,25.7C62.1,25.7,62.1,25.7,62.1,25.7L62.1,25.7C62.1,25.6,62.1,25.6,62.1,25.7c0.1-0.1,0.1-0.2,0.1-0.3
			c0-0.1,0-0.2,0-0.2c0,0.1-0.1,0.2-0.1,0.3C62,25.5,62,25.6,62.1,25.7C62,25.7,62.1,25.6,62.1,25.7L62.1,25.7z M62.3,25.4
			C62.2,25.4,62.2,25.4,62.3,25.4c-0.1-0.2,0-0.3,0-0.4C62.3,25.1,62.4,25.3,62.3,25.4L62.3,25.4L62.3,25.4L62.3,25.4z M62.4,25.3
			L62.4,25.3c0.1-0.1,0.1-0.2,0.1-0.2c0-0.1,0-0.2,0-0.3c-0.1,0.1-0.1,0.2-0.2,0.3C62.4,25.2,62.4,25.2,62.4,25.3L62.4,25.3
			L62.4,25.3z M62.4,25.5L62.4,25.5c0.1,0,0.1-0.1,0.1-0.2c0-0.1,0.1-0.1,0.1-0.2c-0.1,0.1-0.2,0.1-0.2,0.2
			C62.3,25.4,62.3,25.5,62.4,25.5C62.3,25.5,62.3,25.5,62.4,25.5L62.4,25.5z M62.3,25.8C62.2,25.8,62.2,25.8,62.3,25.8
			c-0.1-0.1-0.1-0.1,0-0.1c0.1-0.1,0.2-0.1,0.3-0.2c0,0.1-0.1,0.1-0.1,0.2C62.3,25.7,62.3,25.8,62.3,25.8L62.3,25.8L62.3,25.8z
			 M61.5,26.6L61.5,26.6c0.1,0,0.3-0.1,0.4-0.1c-0.1,0-0.2,0-0.2,0h0.1c0.1-0.1,0.2-0.3,0.3-0.3l0-0.1c0,0.1,0.1,0.1,0.2,0
			c0.1-0.1,0.2-0.2,0.2-0.3c-0.1,0.1-0.2,0.1-0.3,0.2c0,0-0.1,0.1-0.1,0.1c0,0-0.1,0.1-0.1,0.2c-0.1,0.1-0.3,0.1-0.4,0.2
			c0,0,0,0,0,0l0.1,0c0,0,0,0,0,0C61.5,26.4,61.5,26.4,61.5,26.6L61.5,26.6C61.4,26.6,61.4,26.6,61.5,26.6L61.5,26.6L61.5,26.6z
			 M61.7,26.2C61.7,26.2,61.7,26.2,61.7,26.2C61.6,26.2,61.6,26.2,61.7,26.2c-0.1-0.1-0.1-0.1,0-0.2c0.2-0.1,0.3-0.2,0.4-0.3
			c-0.1,0.1-0.2,0.3-0.3,0.4C61.8,26.2,61.7,26.2,61.7,26.2L61.7,26.2L61.7,26.2z M61.5,26.4C61.5,26.4,61.5,26.4,61.5,26.4
			c0,0,0-0.1,0-0.2c0.1-0.1,0.2-0.3,0.3-0.4l0.1-0.1c0,0,0,0,0,0l0,0.1c0-0.1,0-0.1,0-0.1c0-0.1,0.1-0.1,0.1-0.2c0,0.1,0,0.2,0,0.2
			c0,0.1-0.1,0.1-0.1,0.2l0,0C61.7,26,61.6,26.1,61.5,26.4C61.5,26.3,61.5,26.4,61.5,26.4L61.5,26.4L61.5,26.4z M61.3,26.5
			C61.3,26.5,61.3,26.5,61.3,26.5c-0.1-0.1,0-0.1,0-0.2c0-0.1,0.1-0.1,0.2-0.2C61.4,26.2,61.4,26.4,61.3,26.5
			C61.4,26.5,61.4,26.5,61.3,26.5L61.3,26.5L61.3,26.5z M61.1,26.7L61.1,26.7L61.1,26.7c0.1-0.1,0.1-0.2,0.2-0.3
			C61.2,26.4,61.1,26.5,61.1,26.7C61.1,26.6,61.1,26.6,61.1,26.7L61.1,26.7L61.1,26.7z M60.9,26.8L60.9,26.8c0,0,0-0.1,0-0.1
			c0.1-0.1,0.1-0.2,0.2-0.3c0,0,0,0.1,0,0.1c0,0.1,0,0.2,0,0.2C61,26.8,60.9,26.8,60.9,26.8L60.9,26.8L60.9,26.8z M60.6,27L60.6,27
			C60.7,27,60.7,27,60.6,27c0.2-0.2,0.2-0.4,0.2-0.4h0c0,0,0,0,0,0C60.8,26.6,60.6,26.8,60.6,27C60.6,27,60.6,27,60.6,27L60.6,27
			L60.6,27z M60.4,27.1C60.4,27.1,60.3,27.1,60.4,27.1c-0.1-0.1,0-0.2,0-0.2c0.1-0.1,0.2-0.2,0.3-0.2c-0.1,0.1-0.1,0.3-0.2,0.4
			C60.5,27.1,60.4,27.1,60.4,27.1L60.4,27.1L60.4,27.1z M60,27.3L60,27.3c0.1,0,0.1,0,0.1-0.1c0.1-0.1,0.1-0.3,0.2-0.4
			c-0.2,0.1-0.3,0.2-0.4,0.3C60,27.2,60,27.3,60,27.3C60,27.3,60,27.3,60,27.3L60,27.3z M59.8,27.5C59.7,27.5,59.7,27.5,59.8,27.5
			c-0.1-0.1-0.1-0.1-0.1-0.1c0.1-0.2,0.3-0.4,0.4-0.5C60,27,60,27.1,59.9,27.3C59.9,27.4,59.9,27.5,59.8,27.5L59.8,27.5L59.8,27.5z
			 M59.5,27.6L59.5,27.6c0,0,0.1-0.1,0.1-0.1c0.1-0.2,0.2-0.4,0.3-0.5c-0.2,0.1-0.4,0.2-0.5,0.5C59.4,27.5,59.4,27.5,59.5,27.6
			C59.4,27.5,59.4,27.6,59.5,27.6L59.5,27.6z M61.7,26.6L61.7,26.6C61.7,26.6,61.8,26.6,61.7,26.6c0.1-0.1,0.2-0.1,0.2-0.1
			L61.7,26.6C61.7,26.6,61.7,26.6,61.7,26.6c0-0.1,0.1-0.1,0.2-0.2v0c0,0,0,0,0-0.1c0,0,0,0,0,0c0-0.1,0.1-0.1,0.1-0.2h0l-0.1,0.1
			c0,0,0,0,0,0c0.1-0.1,0.2-0.1,0.4-0.1c0,0,0-0.1,0.1-0.1c-0.1,0.1-0.1,0.2-0.1,0.2c-0.1,0.1-0.1,0.1-0.2,0.1l0.1-0.1L62,26.3v0
			c0,0,0,0,0,0.1c0,0,0,0,0,0c0.1,0,0.2-0.1,0.2-0.1c-0.1,0.1-0.2,0.2-0.3,0.3C61.8,26.6,61.8,26.6,61.7,26.6L61.7,26.6L61.7,26.6z
			 M61.6,26.9L61.6,26.9c0.1,0,0.1,0,0.2-0.1c0.1,0,0.1-0.1,0.2-0.2c-0.1,0-0.2,0.1-0.3,0.1C61.6,26.8,61.5,26.8,61.6,26.9
			C61.5,26.9,61.5,26.9,61.6,26.9C61.5,26.8,61.5,26.8,61.6,26.9C61.6,26.8,61.6,26.8,61.6,26.9L61.6,26.9
			C61.5,26.9,61.5,26.9,61.6,26.9L61.6,26.9z M61.3,27.1L61.3,27.1c0.1,0,0.1-0.1,0.2-0.1c0.1-0.1,0.2-0.1,0.2-0.2c0,0,0,0-0.1,0
			c-0.1,0-0.1,0-0.2,0l-0.3,0.2C61.2,27.1,61.2,27.1,61.3,27.1c0,0,0.1-0.1,0.1-0.1c0,0,0,0,0,0L61.3,27.1L61.3,27.1z M61,27.4
			L61,27.4c0.2,0,0.4-0.1,0.5-0.2c0,0,0,0,0,0c0,0-0.1,0-0.1,0c-0.3,0-0.5,0-0.7,0.1c0,0,0.1,0,0.1,0c0.1,0,0.2-0.1,0.3-0.1
			c0,0,0,0,0,0c0,0,0,0,0,0C61.1,27.3,61,27.3,61,27.4L61,27.4L61,27.4z M60.8,27.5L60.8,27.5c0,0,0.1,0,0.1-0.1l0,0
			c-0.1,0-0.3,0.1-0.4,0c0,0,0.1,0,0.1,0c0.2-0.1,0.4,0,0.5,0C61.1,27.5,60.9,27.5,60.8,27.5L60.8,27.5L60.8,27.5z M60.6,27.8
			L60.6,27.8c0.1,0,0.3,0,0.4,0c0,0,0.1,0,0.1,0l0.1-0.2c-0.1,0-0.3,0-0.5,0c0,0,0,0,0,0c0,0,0,0,0,0h0c0,0,0,0,0,0l0,0c0,0,0,0,0,0
			h0L60.6,27.8C60.6,27.7,60.6,27.7,60.6,27.8l0-0.1h0C60.5,27.7,60.5,27.7,60.6,27.8L60.6,27.8L60.6,27.8c-0.1-0.1-0.1-0.1-0.1-0.1
			l0,0L60.6,27.8L60.6,27.8z M60.7,28c-0.2-0.1-0.4-0.1-0.6-0.2c-0.1-0.1-0.2-0.1-0.3-0.1l-0.1,0l0,0l0,0c0,0,0,0,0,0l0,0
			c0,0,0,0,0,0c0,0,0,0,0,0v0v0l0.2-0.1l0,0l0,0c0,0,0,0,0,0c0,0,0,0,0,0v0c0,0,0,0,0,0c0,0,0,0,0,0c0,0,0,0,0,0c0,0,0,0,0,0
			c0,0,0,0,0,0h0c0,0,0,0,0,0c0,0,0,0,0,0l0.1,0c0,0,0,0,0,0c0,0,0,0,0,0c0,0,0,0,0,0c0.2,0,0.4,0.1,0.7,0.1L60.7,28
			C60.7,28,60.7,28,60.7,28L60.7,28L60.7,28z M59.9,27.7L59.9,27.7c0.2,0,0.3,0,0.5-0.1c0.1,0,0.1,0,0.2-0.1
			c-0.3,0.1-0.5-0.1-0.8-0.1c0,0-0.1,0-0.1,0.1c0,0.1,0,0.1,0,0.1C59.8,27.7,59.9,27.7,59.9,27.7L59.9,27.7z M60.2,27.5
			C60.2,27.5,60.2,27.5,60.2,27.5c-0.1,0-0.1,0-0.1-0.1c0,0,0-0.1,0-0.1c0.2-0.1,0.4,0,0.5,0.1c0,0,0.1,0,0.1,0c-0.1,0-0.1,0-0.1,0
			C60.5,27.5,60.4,27.5,60.2,27.5L60.2,27.5L60.2,27.5z M60.5,27.3L60.5,27.3c0.1,0,0.2,0,0.3,0c0.1,0,0.1,0,0.2-0.1
			c-0.1,0-0.3-0.1-0.4-0.1c-0.1,0-0.1,0-0.2,0c-0.1,0-0.1,0.1-0.1,0.1C60.4,27.3,60.4,27.3,60.5,27.3L60.5,27.3L60.5,27.3z
			 M60.8,27.1C60.8,27.1,60.8,27.1,60.8,27.1c-0.1,0-0.1,0-0.1-0.1c0,0,0-0.1,0-0.1c0.2-0.1,0.3,0,0.5,0
			C61.1,27.1,60.9,27.1,60.8,27.1L60.8,27.1L60.8,27.1z M61.1,27L61.1,27c0,0,0.1,0,0.1,0c0.1,0,0.2-0.1,0.2-0.1c-0.1,0-0.2,0-0.4,0
			c0,0,0,0,0,0C61,26.8,60.9,26.9,61.1,27C61,26.9,61,26.9,61.1,27C61,27,61,27,61.1,27L61.1,27z M61.2,26.8L61.2,26.8
			C61.2,26.8,61.2,26.8,61.2,26.8c-0.1-0.1-0.1-0.1-0.1-0.1c0.1,0,0.1,0,0.2,0c0.1,0,0.1,0,0.2,0c0,0,0.1,0,0.1,0h0l0,0
			c0,0-0.1,0.1-0.1,0.1C61.4,26.8,61.3,26.8,61.2,26.8L61.2,26.8L61.2,26.8z M60.3,28.2L60.3,28.2c0.1,0,0.2,0,0.3-0.1c0,0,0,0,0,0
			s0,0,0,0h-0.1c0,0,0,0,0,0c0,0,0,0,0,0h0L60.3,28.2L60.3,28.2z M60.9,27.9L60.9,27.9L60.9,27.9C61,27.9,61,27.8,60.9,27.9
			C61,27.9,60.9,27.9,60.9,27.9C60.9,27.9,60.9,27.9,60.9,27.9L60.9,27.9L60.9,27.9z M59.4,27.3C59.4,27.3,59.4,27.3,59.4,27.3
			L59.4,27.3c0-0.2,0.1-0.2,0.2-0.3C59.6,27.1,59.5,27.2,59.4,27.3L59.4,27.3L59.4,27.3z M59.3,27.2C59.3,27.2,59.3,27.2,59.3,27.2
			c0-0.1-0.1-0.1-0.1-0.2c0,0,0,0,0,0c0,0,0.1,0,0.1,0c0,0,0,0,0,0C59.4,27.1,59.4,27.1,59.3,27.2C59.4,27.1,59.4,27.2,59.3,27.2
			L59.3,27.2z"/>
		<path class="st10" d="M56.6,26.4L56.6,26.4L56.6,26.4C56.7,26.4,56.6,26.4,56.6,26.4L56.6,26.4z"/>
		<path class="st10" d="M56.6,26.4L56.6,26.4C56.6,26.4,56.6,26.4,56.6,26.4L56.6,26.4z"/>
		<path class="st0" d="M57.1,26.3C57.1,26.3,57.1,26.3,57.1,26.3C57.1,26.2,57.1,26.2,57.1,26.3C57.1,26.2,57.1,26.2,57.1,26.3
			L57.1,26.3C57,26.2,57.1,26.2,57.1,26.3C57.1,26.3,57.1,26.3,57.1,26.3L57.1,26.3C57,26.3,57.1,26.3,57.1,26.3
			C57.1,26.3,57.1,26.3,57.1,26.3z"/>
		<path class="st0" d="M57.1,26.3L57.1,26.3C57.1,26.2,57.1,26.2,57.1,26.3L57.1,26.3L57.1,26.3z"/>
		<path class="st0" d="M56.9,26.1C56.9,26.1,56.9,26.1,56.9,26.1C56.9,26.1,56.9,26.1,56.9,26.1C56.9,26.1,56.9,26.1,56.9,26.1z"/>
		<path class="st0" d="M55.9,25.4C55.9,25.4,55.9,25.4,55.9,25.4L55.9,25.4L55.9,25.4L55.9,25.4L55.9,25.4L55.9,25.4z M55.9,25.4
			L55.9,25.4C56,25.4,56,25.4,55.9,25.4C56,25.4,56,25.4,55.9,25.4C55.9,25.4,55.9,25.4,55.9,25.4C55.9,25.4,55.9,25.4,55.9,25.4
			C55.9,25.4,55.9,25.4,55.9,25.4L55.9,25.4z M55.9,25.3L55.9,25.3L55.9,25.3C55.9,25.3,55.9,25.3,55.9,25.3L55.9,25.3L55.9,25.3z
			 M56,25.3L56,25.3L56,25.3C56,25.3,56,25.3,56,25.3L56,25.3C56,25.3,56,25.3,56,25.3L56,25.3z M55.9,25.3L55.9,25.3L55.9,25.3
			L55.9,25.3C55.9,25.2,55.9,25.2,55.9,25.3L55.9,25.3z M56.3,25.5L56.3,25.5L56.3,25.5L56.3,25.5L56.3,25.5L56.3,25.5
			C56.3,25.5,56.3,25.5,56.3,25.5L56.3,25.5z M56.4,25.5L56.4,25.5C56.4,25.4,56.4,25.4,56.4,25.5c0-0.1,0-0.1,0-0.1
			c0-0.1-0.1-0.1,0-0.2l0,0.1c0,0,0,0,0,0v0v0C56.4,25.4,56.4,25.4,56.4,25.5L56.4,25.5L56.4,25.5L56.4,25.5L56.4,25.5z M57.8,27
			L57.8,27C57.8,27,57.8,26.9,57.8,27C57.7,26.9,57.7,26.9,57.8,27L57.8,27L57.8,27z M57.4,27.7L57.4,27.7L57.4,27.7
			C57.4,27.7,57.4,27.7,57.4,27.7L57.4,27.7C57.3,27.7,57.4,27.7,57.4,27.7L57.4,27.7z M59.1,27.2L59.1,27.2L59.1,27.2L59.1,27.2
			L59.1,27.2C59.1,27.2,59.1,27.2,59.1,27.2C59.1,27.2,59.1,27.2,59.1,27.2L59.1,27.2z M59.2,27.2L59.2,27.2L59.2,27.2
			C59.2,27.1,59.2,27.1,59.2,27.2C59.2,27.2,59.2,27.2,59.2,27.2C59.2,27.2,59.2,27.2,59.2,27.2L59.2,27.2z M59.1,27.2L59.1,27.2
			C59.1,27.2,59.1,27.2,59.1,27.2L59.1,27.2C59.2,27.2,59.1,27.2,59.1,27.2L59.1,27.2L59.1,27.2L59.1,27.2z M59.1,27.1L59.1,27.1
			C59.1,27.1,59.1,27.1,59.1,27.1L59.1,27.1C59.2,27.1,59.1,27.1,59.1,27.1C59.1,27.1,59.1,27.1,59.1,27.1L59.1,27.1L59.1,27.1z
			 M59.2,27.1L59.2,27.1L59.2,27.1C59.2,27.1,59.2,27,59.2,27.1C59.2,27,59.2,27,59.2,27.1L59.2,27.1C59.2,27.1,59.2,27.1,59.2,27.1
			L59.2,27.1z M59.2,27.2L59.2,27.2C59.3,27.2,59.3,27.2,59.2,27.2C59.3,27.1,59.3,27.1,59.2,27.2L59.2,27.2L59.2,27.2z M58.6,27.8
			L58.6,27.8C58.7,27.8,58.7,27.8,58.6,27.8C58.7,27.8,58.7,27.8,58.6,27.8L58.6,27.8C58.7,27.7,58.6,27.7,58.6,27.8L58.6,27.8
			L58.6,27.8z M58.7,27.8L58.7,27.8C58.7,27.8,58.7,27.8,58.7,27.8C58.7,27.8,58.7,27.8,58.7,27.8C58.6,27.8,58.6,27.8,58.7,27.8
			C58.7,27.8,58.7,27.8,58.7,27.8L58.7,27.8z M58.7,27.9L58.7,27.9L58.7,27.9v-0.1V27.9L58.7,27.9L58.7,27.9z M57.3,27.7L57.3,27.7
			C57.3,27.7,57.3,27.7,57.3,27.7L57.3,27.7C57.3,27.7,57.3,27.7,57.3,27.7C57.3,27.7,57.3,27.7,57.3,27.7L57.3,27.7z M57.3,27.7
			C57.3,27.7,57.3,27.7,57.3,27.7L57.3,27.7C57.3,27.7,57.3,27.7,57.3,27.7L57.3,27.7L57.3,27.7L57.3,27.7z M57.3,27.6L57.3,27.6
			C57.3,27.6,57.3,27.6,57.3,27.6C57.3,27.6,57.3,27.6,57.3,27.6L57.3,27.6z M57.3,27.6L57.3,27.6C57.3,27.6,57.3,27.6,57.3,27.6
			C57.4,27.6,57.4,27.6,57.3,27.6L57.3,27.6C57.3,27.6,57.3,27.6,57.3,27.6L57.3,27.6z M57.4,27.8L57.4,27.8L57.4,27.8L57.4,27.8
			C57.4,27.8,57.4,27.8,57.4,27.8L57.4,27.8L57.4,27.8z M56.9,27L56.9,27L56.9,27C56.9,27,56.9,27,56.9,27C56.9,27,56.8,27,56.9,27
			C56.8,27,56.8,27,56.9,27L56.9,27z M56.9,27L56.9,27L56.9,27C56.9,27,56.9,26.9,56.9,27L56.9,27C56.9,27,56.9,27,56.9,27L56.9,27z
			 M57,26.9L57,26.9C57,26.9,57,26.9,57,26.9L57,26.9L57,26.9L57,26.9z M56.9,26.9L56.9,26.9C56.9,26.8,56.9,26.8,56.9,26.9
			C56.9,26.8,56.9,26.8,56.9,26.9C56.9,26.9,56.9,26.9,56.9,26.9L56.9,26.9z M56.9,26.9L56.9,26.9L56.9,26.9
			C56.9,26.9,56.9,26.9,56.9,26.9C56.9,26.9,56.9,26.9,56.9,26.9L56.9,26.9L56.9,26.9z M56.8,26.9L56.8,26.9
			C56.8,26.9,56.8,26.9,56.8,26.9C56.8,26.8,56.8,26.8,56.8,26.9L56.8,26.9L56.8,26.9C56.8,26.8,56.8,26.9,56.8,26.9L56.8,26.9
			L56.8,26.9z M56.8,27L56.8,27L56.8,27C56.8,26.9,56.8,26.9,56.8,27L56.8,27L56.8,27L56.8,27z M57.2,27.1L57.2,27.1
			C57.3,27.1,57.3,27.1,57.2,27.1C57.3,27,57.2,27,57.2,27.1L57.2,27.1z M57.1,26.2L57.1,26.2C57.1,26.2,57.1,26.2,57.1,26.2
			L57.1,26.2L57.1,26.2C57,26.1,57,26.1,57.1,26.2C57,26.1,57,26.1,57.1,26.2C57,26.2,57.1,26.2,57.1,26.2
			C57.1,26.2,57.1,26.2,57.1,26.2L57.1,26.2L57.1,26.2z M60.7,27.4L60.7,27.4L60.7,27.4C60.7,27.3,60.7,27.3,60.7,27.4L60.7,27.4
			L60.7,27.4z M60.4,27.5L60.4,27.5h0.1C60.5,27.5,60.5,27.5,60.4,27.5C60.4,27.5,60.4,27.5,60.4,27.5
			C60.4,27.5,60.4,27.5,60.4,27.5L60.4,27.5z M61.7,26.4L61.7,26.4l0.2-0.1v0L61.7,26.4L61.7,26.4z M61.9,26L61.9,26l0.2-0.3
			C62.1,25.9,61.9,25.9,61.9,26L61.9,26z M61.8,25.9L61.8,25.9l0.1-0.1C61.9,25.8,61.9,25.8,61.8,25.9
			C61.9,25.9,61.9,25.9,61.8,25.9L61.8,25.9L61.8,25.9z M61.7,26L61.7,26L61.7,26l0.1-0.1L61.7,26L61.7,26z"/>
		<path class="st11" d="M59.2,20.5c1.8,0,3.3,1.5,3.3,3.3c0,1.8-1.5,3.3-3.3,3.3c-1.8,0-3.3-1.5-3.3-3.3
			C55.9,22,57.4,20.5,59.2,20.5L59.2,20.5z M59.2,20.7c-1.7,0-3,1.4-3,3c0,1.7,1.4,3,3,3c1.7,0,3-1.4,3-3
			C62.3,22.1,60.9,20.7,59.2,20.7L59.2,20.7z"/>
		<path class="st17" d="M59.2,21.1c1.5,0,2.7,1.2,2.7,2.7c0,1.5-1.2,2.7-2.7,2.7c-1.5,0-2.7-1.2-2.7-2.7
			C56.6,22.3,57.8,21.1,59.2,21.1z"/>
		<path class="st18" d="M59.2,20.6c1.7,0,3.1,1.4,3.1,3.1c0,1.7-1.4,3.1-3.1,3.1c-1.7,0-3.2-1.4-3.2-3.1
			C56.1,22,57.5,20.6,59.2,20.6z"/>
		<path class="st19" d="M59.2,21.6c1.2,0,2.1,1,2.1,2.1c0,1.2-1,2.1-2.1,2.1c-1.2,0-2.1-1-2.1-2.1C57.1,22.6,58,21.6,59.2,21.6z"/>
		<path class="st20" d="M59.2,21.2c1.4,0,2.6,1.2,2.6,2.6c0,1.4-1.2,2.6-2.6,2.6c-1.4,0-2.6-1.2-2.6-2.6
			C56.6,22.3,57.8,21.2,59.2,21.2z"/>
		<path class="st15" d="M59.2,21.7c1.2,0,2.1,0.9,2.1,2.1c0,1.2-0.9,2.1-2.1,2.1c-1.2,0-2.1-0.9-2.1-2.1
			C57.1,22.6,58.1,21.7,59.2,21.7z"/>
		<polygon class="st11" points="59.9,22.2 61.4,21.5 60.8,23.1 62.4,23.8 60.8,24.4 61.4,26 59.9,25.3 59.2,26.9 58.6,25.3 57,26 
			57.6,24.4 56.1,23.8 57.6,23.1 57,21.5 58.6,22.2 59.2,20.6 		"/>
		<polygon class="st0" points="59.8,22.5 61.1,21.9 60.5,23.2 61.8,23.8 60.5,24.3 61.1,25.6 59.8,25.1 59.2,26.4 58.7,25.1 
			57.4,25.6 57.9,24.3 56.6,23.8 57.9,23.2 57.4,21.9 58.7,22.5 59.2,21.2 		"/>
		<polygon class="st0" points="59.7,22.5 61,22 60.5,23.3 61.7,23.8 60.5,24.3 61,25.5 59.7,25 59.2,26.3 58.7,25 57.4,25.5 
			58,24.3 56.7,23.8 58,23.3 57.4,22 58.7,22.5 59.2,21.3 		"/>
		<path class="st20" d="M59.6,24.8c0.2-0.2,0.3-0.4,0.4-0.6c0.1-0.6-0.3-1-0.6-1.4c0,0.4,0.4,0.8,0.3,1.3
			C59.8,24.3,59.8,24.6,59.6,24.8C59.6,24.8,59.6,24.8,59.6,24.8L59.6,24.8z M59.1,24.9c-0.1,0-0.1,0-0.1,0
			c-0.2-0.2-0.3-0.5-0.3-0.7c0,0,0,0,0,0c0,0.1,0,0.3,0.1,0.4c-0.1-0.1-0.1-0.2-0.2-0.4c0-0.3,0-0.6,0.2-0.8v0c0,0.1,0,0.1,0,0.2
			c0,0.3,0,0.8,0.3,1c0,0,0,0,0,0c0-0.2-0.1-0.3-0.1-0.4c-0.1-0.1-0.1-0.2-0.1-0.3c0-0.4,0.1-0.8,0.3-1c0,0,0,0.1,0,0.1
			c0,0.1,0,0.2,0,0.3c0,0.1,0,0.1,0,0.2c0,0.2,0.1,0.3,0.1,0.5c0,0.1,0,0.1,0,0.2c0.1,0.2-0.1,0.5,0,0.7c0,0,0.1,0,0.1,0
			c0,0,0-0.1,0-0.1c0.2-0.7-0.5-1.5-0.1-2.2c0,0.5,0.3,0.8,0.4,1.2c0.1,0.3,0.1,0.7,0,1c0,0.1-0.1,0.2-0.2,0.3c-0.1,0-0.1,0-0.2,0
			C59.3,24.9,59.2,25,59.1,24.9L59.1,24.9z"/>
		<path class="st11" d="M60.5,26.4c0,0.1-0.1,0.1-0.1,0.1c-0.1,0-0.1-0.1-0.1-0.1c0-0.1,0.1-0.1,0.1-0.1
			C60.4,26.3,60.5,26.4,60.5,26.4z"/>
		<path class="st11" d="M62,24.9c0,0.1-0.1,0.1-0.1,0.1s-0.1-0.1-0.1-0.1c0-0.1,0.1-0.1,0.1-0.1S62,24.8,62,24.9z"/>
		<path class="st11" d="M62,22.7c0,0.1-0.1,0.1-0.1,0.1s-0.1-0.1-0.1-0.1c0-0.1,0.1-0.1,0.1-0.1S62,22.6,62,22.7z"/>
		<path class="st11" d="M60.5,21.1c0,0.1-0.1,0.1-0.1,0.1c-0.1,0-0.1-0.1-0.1-0.1c0-0.1,0.1-0.1,0.1-0.1C60.4,21,60.5,21,60.5,21.1z
			"/>
		<path class="st11" d="M58.2,21.1c0,0.1-0.1,0.1-0.1,0.1c-0.1,0-0.1-0.1-0.1-0.1C58,21,58,21,58.1,21C58.2,21,58.2,21,58.2,21.1z"
			/>
		<path class="st11" d="M56.7,22.7c0,0.1-0.1,0.1-0.1,0.1c-0.1,0-0.1-0.1-0.1-0.1c0-0.1,0.1-0.1,0.1-0.1
			C56.6,22.6,56.7,22.6,56.7,22.7z"/>
		<path class="st11" d="M56.7,24.9c0,0.1-0.1,0.1-0.1,0.1c-0.1,0-0.1-0.1-0.1-0.1c0-0.1,0.1-0.1,0.1-0.1
			C56.6,24.8,56.7,24.8,56.7,24.9z"/>
		<path class="st11" d="M58.2,26.4c0,0.1-0.1,0.1-0.1,0.1c-0.1,0-0.1-0.1-0.1-0.1c0-0.1,0.1-0.1,0.1-0.1
			C58.2,26.3,58.2,26.4,58.2,26.4z"/>
	</g>
</g>
</svg>
