<?xml version="1.0" encoding="utf-8"?>
<!-- Generator: Adobe Illustrator 22.0.1, SVG Export Plug-In . SVG Version: 6.00 Build 0)  -->
<svg version="1.1" id="Layer_1" xmlns="http://www.w3.org/2000/svg" xmlns:xlink="http://www.w3.org/1999/xlink" x="0px" y="0px"
	 viewBox="0 0 180 55.3" style="enable-background:new 0 0 180 55.3;" xml:space="preserve">
<style type="text/css">
	.st0{fill:#0077C0;}
	.st1{fill:#007A40;}
	.st2{fill:#009C4E;}
	.st3{fill:#39B54A;}
	.st4{fill:#0083BF;}
	.st5{fill:#0098CD;}
	.st6{fill:#62B3E4;}
</style>
<g>
	<g>
		<path class="st0" d="M82.6,22.5c0,0.4-0.1,0.6-0.2,0.6c-0.1,0-0.2-0.2-0.2-0.5c-0.3-4-3.2-5.2-5.4-5.2c-2.5,0-5.2,0.7-5.2,3.9
			c0,5.1,12.7,1.4,12.7,10.9c0,4.9-4.1,7.2-8.4,7.2c-1.3,0-4.4-0.2-6.6-1.7c-0.4-0.3-0.4,0.4-0.7,0.4c-0.1,0-0.3-0.2-0.3-1.3
			l-0.4-5.4c0-0.2,0.1-0.4,0.2-0.4c0.1,0,0.2,0.1,0.3,0.5c0.5,5.3,4.9,6.5,7.6,6.5c2.7,0,5.6-1.1,5.6-4.5c0-5.1-12.8-1.3-12.8-10.7
			c0-5.1,4.1-6.8,7.9-6.8c1.8,0,3.7,0.5,5.2,1.3c0.4,0.2,0.5-0.4,0.7-0.4c0.1,0,0.2,0.2,0.2,1.5L82.6,22.5z"/>
		<path class="st0" d="M99.2,31.2H90l-0.9,2.1C88.8,34,88,35.8,88,36.8c0,0.7,0.2,1.5,1.6,1.5c0.3,0,0.4,0.2,0.4,0.3
			c0,0.2-0.1,0.3-0.4,0.3c-1.1,0-2.2-0.1-3.3-0.1c-1.1,0-2.2,0.1-3.3,0.1c-0.3,0-0.4-0.2-0.4-0.3c0-0.2,0.2-0.3,0.4-0.3
			c1.8,0,3.1-2.3,4.5-5.6l6.3-14.2c-0.4-0.9-1.4-1.5-2.2-1.5c-0.3,0-0.5-0.2-0.5-0.3c0-0.2,0.2-0.3,0.4-0.3h3c1.5,0,2.3,0.7,3,2.5
			l6.4,14.8c0.8,1.9,2.2,4.7,3.7,4.7c0.3,0,0.4,0.2,0.4,0.4c0,0.2-0.1,0.3-0.4,0.3c-1.3,0-2.5-0.1-3.8-0.1c-1.3,0-2.6,0.1-3.9,0.1
			c-0.3,0-0.4-0.1-0.4-0.3c0-0.1,0.1-0.3,0.4-0.3c0.8,0,1.3-0.4,1.3-1.3c0-0.7-0.3-1.6-0.9-3L99.2,31.2z M94.6,20.5l-4,9.1h7.8
			L94.6,20.5z"/>
		<path class="st0" d="M116.3,38.9c-1,0-2-0.1-3.1-0.1c-1.5,0-2.7,0.1-3.7,0.1c-0.4,0-0.6-0.1-0.6-0.3c0-0.2,0.2-0.3,0.6-0.3
			c0.6,0,1.6-0.4,2-1.3c0.1-0.4,0.2-1,0.2-1.9V20.4c0-1.1-0.1-1.7-0.2-2.2c-0.4-0.9-1.4-1.3-2-1.3c-0.4,0-0.6-0.1-0.6-0.3
			c0-0.2,0.2-0.3,0.6-0.3c1.1,0,2.2,0.1,3.8,0.1c1.1,0,2.1-0.1,3.3-0.1h3.9c2.3,0,7.8,0,7.8,5.5c0,2.2-1.1,3.6-2.3,4.6
			c2,0.8,3.8,2.7,3.8,5.9c0,5.7-4.9,6.6-8.1,6.6H116.3z M121,26c1.6,0,3.4-0.9,3.4-4.1c0-3.2-1.8-4-4-4h-4.8c-0.3,0-0.6,0.2-0.6,0.8
			v6.8c0,0.3,0.1,0.4,0.3,0.5H121z M121.7,37.2c3.2,0,4.3-2.6,4.3-4.9c0-2.3-1.2-4.7-3.7-4.7h-6.9c-0.2,0-0.2,0.2-0.2,0.4v5.5
			c0,3.2,0.1,3.6,2.9,3.6H121.7z"/>
		<path class="st0" d="M145.5,31.2h-9.2l-0.9,2.1c-0.3,0.7-1.1,2.5-1.1,3.5c0,0.7,0.2,1.5,1.6,1.5c0.3,0,0.4,0.2,0.4,0.3
			c0,0.2-0.1,0.3-0.4,0.3c-1.1,0-2.2-0.1-3.3-0.1c-1.1,0-2.2,0.1-3.3,0.1c-0.3,0-0.4-0.2-0.4-0.3c0-0.2,0.2-0.3,0.4-0.3
			c1.8,0,3.1-2.3,4.5-5.6l6.3-14.2c-0.4-0.9-1.4-1.5-2.2-1.5c-0.3,0-0.5-0.2-0.5-0.3c0-0.2,0.2-0.3,0.4-0.3h3c1.5,0,2.3,0.7,3,2.5
			l6.4,14.8c0.8,1.9,2.2,4.7,3.7,4.7c0.3,0,0.4,0.2,0.4,0.4c0,0.2-0.1,0.3-0.4,0.3c-1.3,0-2.5-0.1-3.8-0.1c-1.3,0-2.6,0.1-3.9,0.1
			c-0.3,0-0.4-0.1-0.4-0.3c0-0.1,0.1-0.3,0.4-0.3c0.8,0,1.3-0.4,1.3-1.3c0-0.7-0.3-1.6-0.9-3L145.5,31.2z M140.9,20.5l-4,9.1h7.8
			L140.9,20.5z"/>
		<path class="st0" d="M158,20.1c0-0.9-0.1-1.5-0.2-1.9c-0.3-0.9-1.4-1.3-2-1.3c-0.3,0-0.6-0.1-0.6-0.3c0-0.2,0.2-0.3,0.5-0.3
			c1.1,0,2.3,0.1,3.9,0.1c1.6,0,2.8-0.1,3.9-0.1c0.3,0,0.5,0.1,0.5,0.3c0,0.2-0.3,0.3-0.6,0.3c-0.6,0-1.6,0.4-2,1.3
			c-0.1,0.4-0.2,0.9-0.2,1.9v5.4c0,0.2,0.1,0.4,0.2,0.4h12.1c0.2,0,0.2-0.1,0.2-0.3v-5.5c0-0.9-0.1-1.5-0.2-1.9
			c-0.3-0.9-1.4-1.3-2-1.3c-0.3,0-0.6-0.1-0.6-0.3c0-0.2,0.2-0.3,0.5-0.3c1.1,0,2.3,0.1,3.9,0.1c1.7,0,2.8-0.1,3.9-0.1
			c0.3,0,0.5,0.1,0.5,0.3c0,0.2-0.2,0.3-0.6,0.3c-0.6,0-1.6,0.4-2,1.3c-0.1,0.4-0.2,0.9-0.2,1.9v14.6c0,1.1,0.1,1.7,0.2,2.1
			c0.3,0.9,1.4,1.3,2,1.3c0.4,0,0.6,0.1,0.6,0.3c0,0.2-0.2,0.3-0.5,0.3c-1.1,0-2.3-0.1-3.9-0.1c-1.7,0-2.8,0.1-3.9,0.1
			c-0.3,0-0.5-0.1-0.5-0.3c0-0.2,0.2-0.3,0.6-0.3c0.6,0,1.6-0.4,2-1.3c0.2-0.4,0.2-1,0.2-2.1v-6.4c0-0.3-0.1-0.4-0.2-0.4h-12
			c-0.2,0-0.3,0.1-0.3,0.4v6.4c0,1.1,0.1,1.7,0.2,2.1c0.4,0.9,1.4,1.3,2,1.3c0.3,0,0.6,0.1,0.6,0.3c0,0.2-0.2,0.3-0.5,0.3
			c-1.1,0-2.3-0.1-3.9-0.1c-1.6,0-2.8,0.1-3.9,0.1c-0.3,0-0.5-0.1-0.5-0.3c0-0.2,0.3-0.3,0.6-0.3c0.6,0,1.6-0.4,2-1.3
			c0.1-0.4,0.2-1,0.2-2.1V20.1z"/>
	</g>
	<g>
		<polygon class="st1" points="48.7,8.9 42.7,12.6 43.1,21.2 49.1,17.5 		"/>
		<polygon class="st1" points="54.9,23.9 57,22.6 50,18.8 47.9,20.1 		"/>
		<polygon class="st2" points="54.9,23.9 47.9,20.1 45.9,21.3 54.6,26 56.6,24.8 		"/>
		<polygon class="st2" points="47.1,18.8 46.7,8.8 44.7,10 45.1,20 		"/>
		<polygon class="st3" points="45.9,21.3 37.8,26.2 47.6,31.6 55.7,26.6 54.6,26 		"/>
		<polygon class="st3" points="45.1,20 44.7,10 44.7,8.6 36.8,13.6 37.1,25 		"/>
		<polygon class="st1" points="46.8,44.4 48.9,45.7 49.2,37.7 47.1,36.4 		"/>
		<polygon class="st1" points="49.9,36.4 57,32.4 54.9,31.1 47.8,35.1 		"/>
		<polygon class="st2" points="45.1,35.2 44.7,45 46.7,46.3 46.8,44.4 47.1,36.4 		"/>
		<polygon class="st2" points="45.8,33.9 47.8,35.1 54.9,31.1 56.6,30.2 54.6,29 		"/>
		<polygon class="st3" points="45.1,35.2 37,30.2 36.7,41.3 44.7,46.3 44.7,45 		"/>
		<polygon class="st3" points="45.8,33.9 54.6,29 55.8,28.4 47.8,23.6 37.8,28.9 		"/>
		<polygon class="st1" points="7,18.8 0,22.6 2.1,23.9 9.1,20.1 		"/>
		<polygon class="st1" points="10.3,10.7 8.2,9.4 7.8,17.6 9.9,18.8 		"/>
		<polygon class="st2" points="11.1,21.3 9.1,20.1 2.1,23.9 0.4,24.8 2.4,26 		"/>
		<polygon class="st2" points="11.9,20 12.3,10 10.4,8.8 10.3,10.7 9.9,18.8 		"/>
		<polygon class="st3" points="2.4,26 1.4,26.6 9.4,31.6 19.2,26.2 11.1,21.3 		"/>
		<polygon class="st3" points="20.2,13.6 12.4,8.6 12.3,10 11.9,20 19.9,25 		"/>
		<polygon class="st1" points="7.8,37.7 8.1,45.7 10.2,44.4 9.9,36.4 		"/>
		<polygon class="st1" points="2.1,31.1 0,32.4 7.1,36.4 9.2,35.1 		"/>
		<polygon class="st2" points="11.9,35.2 9.9,36.4 10.2,44.4 10.3,46.3 12.3,45 		"/>
		<polygon class="st2" points="11.2,33.9 2.4,29 0.4,30.2 2.1,31.1 9.2,35.1 		"/>
		<polygon class="st3" points="20.4,41.3 20,30.2 11.9,35.2 12.3,45 12.3,46.3 		"/>
		<polygon class="st3" points="11.2,33.9 19.2,28.9 9.2,23.6 1.2,28.4 2.4,29 		"/>
		<polygon class="st4" points="29.2,50.7 37.1,55.3 37.1,52.4 29.2,47.9 		"/>
		<polygon class="st4" points="19.2,52.4 19.2,55.2 27.4,50.6 27.4,47.8 		"/>
		<polygon class="st5" points="29.2,47.9 37.1,52.4 39,53.5 39,50.8 29.2,45.2 		"/>
		<polygon class="st5" points="27.4,45.1 17.3,50.8 17.3,53.4 19.2,52.4 27.4,47.8 		"/>
		<polygon class="st6" points="29.2,34.3 29.2,45.2 39,50.8 40.2,51.5 40.3,40.6 		"/>
		<polygon class="st6" points="27.4,34.3 16.2,40.8 16,51.5 17.3,50.8 27.4,45.1 		"/>
		<polygon class="st4" points="27.9,4.7 27.9,4.6 20,0 20,2.8 27.9,7.4 		"/>
		<polygon class="st4" points="29.6,7.5 37.9,2.9 37.9,0.1 29.6,4.7 29.6,4.9 		"/>
		<polygon class="st5" points="27.9,8.8 27.9,7.4 20,2.8 18.1,1.7 18.1,4.5 27.9,10.1 		"/>
		<polygon class="st5" points="29.6,8.8 29.6,10.1 39.8,4.5 39.8,1.9 37.9,2.9 29.6,7.5 		"/>
		<polygon class="st6" points="18.1,4.5 16.9,3.8 16.8,14.6 27.9,21 27.9,10.1 		"/>
		<polygon class="st6" points="39.8,4.5 29.6,10.1 29.6,21 40.9,14.5 41.1,3.7 		"/>
	</g>
</g>
</svg>
