<?xml version="1.0" encoding="utf-8"?>
<!-- Generator: Adobe Illustrator 22.0.1, SVG Export Plug-In . SVG Version: 6.00 Build 0)  -->
<svg version="1.1" id="Layer_1" xmlns="http://www.w3.org/2000/svg" xmlns:xlink="http://www.w3.org/1999/xlink" x="0px" y="0px"
	 viewBox="0 0 23 19" style="enable-background:new 0 0 23 19;" xml:space="preserve">
<style type="text/css">
	.st0{fill:#0083C0;}
	.st1{opacity:0.98;fill:#61B3E4;enable-background:new    ;}
</style>
<path class="st0" d="M6.4,0l5,2.7L16.6,0l-0.1,3.2l1.9-1.1l0.2,4.8L23,9v1l-4.5,2.1l-0.2,4.7l-1.8-1.1V19l-5-2.7L6.4,19v-3.3
	l-1.9,1.1l-0.2-4.6L0,10V9l4.4-2.2L4.6,2l1.8,1.1C6.4,3.1,6.4,0,6.4,0z"/>
<path class="st1" d="M8.6,4l2.8,1.6l3-1.6v1.8l1.1-0.6V8L18,9.3l-0.3,0.2L18,9.7L15.5,11l-0.1,2.7l-1-0.6V15l-2.8-1.6l-3,1.6v-1.9
	l-1.1,0.6l0-2.7L5,9.7l0.4-0.2L5,9.3L7.5,8l0.1-2.8l1,0.6V4z"/>
</svg>
