<?xml version="1.0" encoding="utf-8"?>
<!-- Generator: Adobe Illustrator 22.0.1, SVG Export Plug-In . SVG Version: 6.00 Build 0)  -->
<svg version="1.1" id="Layer_1" xmlns="http://www.w3.org/2000/svg" xmlns:xlink="http://www.w3.org/1999/xlink" x="0px" y="0px"
	 viewBox="0 0 132.8 19" style="enable-background:new 0 0 132.8 19;" xml:space="preserve">
<style type="text/css">
	.st0{opacity:0.4;fill:#FFFFFF;enable-background:new    ;}
	.st1{opacity:0.98;fill:#FFFFFF;enable-background:new    ;}
</style>
<path class="st0" d="M61.3,0l5,2.7L71.4,0l-0.1,3.2l1.9-1.1l0.2,4.8L77.9,9v1l-4.5,2.1l-0.2,4.7l-1.8-1.1V19l-5-2.7L61.3,19l0-3.3
	l-1.9,1.1l-0.2-4.6L54.9,10V9l4.4-2.2l0.2-4.8l1.8,1.1V0z"/>
<path class="st1" d="M63.5,4l2.8,1.6L69.2,4l0,1.8l1.1-0.6L70.4,8l2.5,1.3l-0.3,0.2l0.4,0.2L70.3,11l-0.1,2.7l-1-0.6V15l-2.8-1.6
	L63.5,15l0-1.9l-1.1,0.6L62.4,11l-2.5-1.4l0.4-0.2l-0.3-0.2L62.4,8l0.1-2.8l1,0.6V4z"/>
<path class="st0" d="M77.9,9h55v1h-55V9z"/>
<path class="st0" d="M-0.1,9h55v1h-55V9z"/>
</svg>
